<svg width="787" height="460" viewBox="0 0 787 460" fill="none" xmlns="http://www.w3.org/2000/svg">
<path d="M59.0417 460L58.2037 458.416C69.4393 452.203 83.4227 444.471 90.7263 431.782C97.9261 419.273 98.0876 402.288 91.1479 387.454C85.2421 374.829 74.3934 363.518 59.7749 354.744C56.8914 353.013 53.8646 351.373 50.9372 349.786C43.8616 345.952 36.545 341.987 30.5121 336.362C22.2029 328.614 15.9159 315.613 20.6018 304.032C22.1429 300.335 24.6668 297.155 27.8868 294.851C31.1069 292.548 34.8941 291.213 38.8185 291L38.9179 292.799C35.3226 292.994 31.8529 294.215 28.9023 296.325C25.9517 298.434 23.6384 301.347 22.2251 304.732C17.8707 315.494 23.8449 327.707 31.6994 335.031C37.5673 340.502 44.7837 344.413 51.7623 348.194C54.7062 349.79 57.7505 351.439 60.6671 353.19C75.5897 362.147 86.6795 373.726 92.7374 386.676C99.9266 402.044 99.738 419.678 92.2449 432.696C84.6924 445.817 70.4698 453.681 59.0417 460Z" fill="#1D415F"/>
<path d="M51 300C59.2843 300 66 296.642 66 292.5C66 288.358 59.2843 285 51 285C42.7157 285 36 288.358 36 292.5C36 296.642 42.7157 300 51 300Z" fill="#1D415F"/>
<path d="M62.5 351C71.0604 351 78 347.418 78 343C78 338.582 71.0604 335 62.5 335C53.9396 335 47 338.582 47 343C47 347.418 53.9396 351 62.5 351Z" fill="#1D415F"/>
<path d="M34.5 359C43.0604 359 50 355.418 50 351C50 346.582 43.0604 343 34.5 343C25.9396 343 19 346.582 19 351C19 355.418 25.9396 359 34.5 359Z" fill="#1D415F"/>
<path d="M78.5 401C87.0604 401 94 397.642 94 393.5C94 389.358 87.0604 386 78.5 386C69.9396 386 63 389.358 63 393.5C63 397.642 69.9396 401 78.5 401Z" fill="#1D415F"/>
<path d="M109 401C117.284 401 124 397.642 124 393.5C124 389.358 117.284 386 109 386C100.716 386 94 389.358 94 393.5C94 397.642 100.716 401 109 401Z" fill="#1D415F"/>
<path d="M787 14H298V256H787V14Z" fill="#577B97"/>
<path d="M773 34H312V236H773V34Z" fill="#1D415F"/>
<path d="M787 0H298V22H787V0Z" fill="#BBDFFA"/>
<path d="M312.5 14C314.985 14 317 12.433 317 10.5C317 8.567 314.985 7 312.5 7C310.015 7 308 8.567 308 10.5C308 12.433 310.015 14 312.5 14Z" fill="white"/>
<path d="M326.5 14C328.985 14 331 12.433 331 10.5C331 8.567 328.985 7 326.5 7C324.015 7 322 8.567 322 10.5C322 12.433 324.015 14 326.5 14Z" fill="white"/>
<path d="M342 14C344.209 14 346 12.433 346 10.5C346 8.567 344.209 7 342 7C339.791 7 338 8.567 338 10.5C338 12.433 339.791 14 342 14Z" fill="white"/>
<path d="M516.881 83C516.382 83 515.904 83.158 515.551 83.4393C515.198 83.7206 515 84.1022 515 84.5C515 84.8978 515.198 85.2794 515.551 85.5607C515.904 85.842 516.382 86 516.881 86H620.119C620.618 86 621.096 85.842 621.449 85.5607C621.802 85.2794 622 84.8978 622 84.5C622 84.1022 621.802 83.7206 621.449 83.4393C621.096 83.158 620.618 83 620.119 83H516.881Z" fill="#577B97"/>
<path d="M516.895 94C516.392 94.0011 515.91 94.2124 515.555 94.5873C515.2 94.9622 515 95.4703 515 96C515 96.5297 515.2 97.0378 515.555 97.4127C515.91 97.7876 516.392 97.9989 516.895 98H570.105C570.608 97.9989 571.09 97.7876 571.445 97.4127C571.8 97.0378 572 96.5297 572 96C572 95.4703 571.8 94.9622 571.445 94.5873C571.09 94.2124 570.608 94.0011 570.105 94H516.895Z" fill="#577B97"/>
<path d="M514.869 151C514.373 151 513.898 151.211 513.547 151.586C513.197 151.961 513 152.47 513 153C513 153.53 513.197 154.039 513.547 154.414C513.898 154.789 514.373 155 514.869 155H707.131C707.627 155 708.102 154.789 708.453 154.414C708.803 154.039 709 153.53 709 153C709 152.47 708.803 151.961 708.453 151.586C708.102 151.211 707.627 151 707.131 151H514.869Z" fill="#577B97"/>
<path d="M514.867 162C514.372 162.001 513.897 162.212 513.547 162.587C513.197 162.962 513 163.47 513 164C513 164.53 513.197 165.038 513.547 165.413C513.897 165.788 514.372 165.999 514.867 166H657.133C657.628 165.999 658.103 165.788 658.453 165.413C658.803 165.038 659 164.53 659 164C659 163.47 658.803 162.962 658.453 162.587C658.103 162.212 657.628 162.001 657.133 162H514.867Z" fill="#577B97"/>
<path d="M514.865 173C514.37 173.001 513.896 173.265 513.546 173.734C513.196 174.203 513 174.838 513 175.5C513 176.162 513.196 176.797 513.546 177.266C513.896 177.735 514.37 177.999 514.865 178H707.135C707.63 177.999 708.105 177.735 708.454 177.266C708.804 176.797 709 176.162 709 175.5C709 174.838 708.804 174.203 708.454 173.734C708.105 173.265 707.63 173.001 707.135 173H514.865Z" fill="#577B97"/>
<path d="M514.867 185C514.372 185.001 513.897 185.212 513.547 185.587C513.197 185.962 513 186.47 513 187C513 187.53 513.197 188.038 513.547 188.413C513.897 188.788 514.372 188.999 514.867 189H657.133C657.628 188.999 658.103 188.788 658.453 188.413C658.803 188.038 659 187.53 659 187C659 186.47 658.803 185.962 658.453 185.587C658.103 185.212 657.628 185.001 657.133 185H514.867Z" fill="#577B97"/>
<path d="M414.5 158C423.06 158 430 150.613 430 141.5C430 132.387 423.06 125 414.5 125C405.94 125 399 132.387 399 141.5C399 150.613 405.94 158 414.5 158Z" fill="#FFB6B6"/>
<path d="M409.368 127.961C409.368 127.961 416.955 130.047 420.884 130.881C424.813 131.715 424.407 129.352 424.407 129.352C424.407 129.352 429.555 130.047 429.284 129.491C429.013 128.934 431.452 126.015 428.607 122.679C425.762 119.342 426.574 116.84 426.574 116.84H424.136L423.458 115.867H419.665C419.665 115.867 415.471 112.093 408.019 113.205C400.567 114.317 391.755 117.257 390.942 121.844C390.832 122.467 390.687 123.158 390.518 123.888C388.48 132.715 392.81 140.974 397.3 148.788C398.404 150.708 403.742 154.895 403.605 152.022C403.469 149.15 398.8 142.697 402.052 142.28C405.303 141.863 410.858 133.383 409.368 127.961Z" fill="#2F2E41"/>
<path d="M405.213 197.789C402.106 197.521 399.024 196.976 396 196.159L396.17 192.701L397.579 165.211L397.592 165H425.95L430.4 190.312L431 193.727C429.826 194.219 428.638 194.683 427.425 195.091C427.411 195.091 427.411 195.105 427.399 195.105C425.715 195.667 424.005 196.159 422.282 196.566C419.992 197.098 417.673 197.483 415.34 197.719C413.536 197.911 411.724 198.005 409.912 198C408.345 198 406.766 197.93 405.213 197.789Z" fill="#BBDFFA"/>
<path d="M386.025 190.527C384.803 190.026 383.621 189.486 382.453 188.92L381.95 188.676C381.611 188.509 381.258 188.329 380.919 188.149C380.456 187.905 380.008 187.661 379.574 187.417C379.152 187.185 378.718 186.941 378.297 186.697C378.27 186.684 378.256 186.671 378.229 186.671C376.762 185.784 375.323 184.871 373.937 183.882C373.706 183.715 373.475 183.548 373.244 183.381L373 179.679L373.353 179.473L397.054 165.206L397.38 165.013L397.407 165L400.748 165.013V176.787C402.636 179.37 403.913 184.781 404.701 191.864C404.81 192.879 404.904 193.92 405 195C401.765 194.755 398.558 194.256 395.411 193.509C395.071 193.445 394.745 193.368 394.405 193.278C392.426 192.787 390.476 192.195 388.565 191.504C387.981 191.298 387.411 191.08 386.84 190.861L386.786 190.835C386.541 190.733 386.27 190.63 386.025 190.527Z" fill="#2F2E41"/>
<path d="M382 189C381.566 188.712 381.145 188.423 380.737 188.135C380.342 187.862 379.934 187.574 379.538 187.285C379.513 187.27 379.5 187.255 379.475 187.255C378.097 186.208 376.745 185.13 375.444 183.962C375.227 183.765 375.01 183.568 374.793 183.37C374.692 183.264 374.59 183.173 374.474 183.067C373.658 182.323 372.868 181.549 372.102 180.73C372.064 180.7 372.039 180.654 372 180.624C372.773 179.917 373.639 179.368 374.564 179L375.47 179.319L381.923 181.625L381.961 184.736L382 189Z" fill="#2F2E41"/>
<path d="M437.925 188.209C437.52 188.418 437.115 188.628 436.71 188.824C436.616 188.876 436.535 188.915 436.454 188.954C435.914 189.216 435.388 189.477 434.848 189.726C434.835 189.739 434.808 189.739 434.808 189.752C434.781 189.765 434.74 189.778 434.713 189.791C433.499 190.353 432.271 190.876 431.016 191.36C429.801 191.817 428.573 192.248 427.319 192.628C427.305 192.628 427.305 192.641 427.292 192.641C425.551 193.163 423.783 193.621 422.002 194C421.982 192.926 422.128 191.856 422.434 190.824L422.447 190.641L423.608 172.444L422.056 164.641L426.509 164L451 176.771C451 176.771 448.301 179.386 437.223 184.954C436.243 185.447 437.682 187.085 437.925 188.209Z" fill="#2F2E41"/>
<path d="M414.722 194.381C413.001 194.548 411.253 194.632 409.506 194.632C407.812 194.632 406.131 194.562 404.45 194.395C404.556 195.495 404.648 196.622 404.741 197.791C406.316 197.93 407.918 198 409.506 198C411.345 198.005 413.183 197.912 415.013 197.721C417.379 197.488 419.731 197.107 422.054 196.58C422.035 195.437 422.178 194.297 422.478 193.199L422.491 193.004C419.936 193.658 417.34 194.118 414.722 194.381ZM464.743 116.282C461.946 107.834 457.43 100.13 451.51 93.7057C445.59 87.2817 438.408 82.2927 430.465 79.0865C422.523 75.8804 414.01 74.5343 405.522 75.1422C397.034 75.75 388.774 78.2972 381.318 82.606C373.863 86.9148 367.391 92.8816 362.354 100.09C357.317 107.299 353.836 115.576 352.154 124.344C350.473 133.112 350.63 142.161 352.616 150.858C354.602 159.556 358.369 167.694 363.654 174.703C364.183 175.399 364.726 176.095 365.282 176.763C365.335 176.819 365.361 176.86 365.401 176.902C366.767 178.559 368.221 180.134 369.756 181.62C370.127 181.982 370.51 182.344 370.894 182.692C370.934 182.719 370.961 182.761 371 182.789C371.794 183.54 372.615 184.25 373.462 184.932C373.581 185.03 373.687 185.113 373.793 185.21C374.018 185.391 374.243 185.572 374.468 185.753C375.818 186.825 377.222 187.813 378.651 188.773C378.678 188.773 378.691 188.787 378.717 188.801C379.128 189.065 379.551 189.33 379.961 189.58C380.385 189.845 380.822 190.109 381.272 190.373C381.603 190.568 381.947 190.763 382.278 190.944L382.768 191.208C383.906 191.821 385.058 192.405 386.249 192.948C386.487 193.059 386.752 193.171 386.99 193.282L387.043 193.31C387.599 193.546 388.155 193.783 388.724 194.006C390.587 194.754 392.487 195.395 394.416 195.926C394.747 196.024 395.065 196.107 395.396 196.177C398.463 196.986 401.589 197.526 404.741 197.791C406.316 197.93 407.918 198 409.506 198C411.345 198.005 413.183 197.912 415.013 197.721C417.379 197.488 419.731 197.107 422.054 196.58C423.802 196.177 425.536 195.69 427.244 195.133C427.257 195.133 427.257 195.119 427.27 195.119C428.501 194.715 429.706 194.256 430.897 193.769C432.128 193.254 433.333 192.698 434.524 192.099C434.55 192.085 434.59 192.071 434.616 192.057C434.616 192.043 434.643 192.043 434.656 192.03C435.186 191.765 435.702 191.487 436.232 191.208C436.311 191.167 436.39 191.125 436.483 191.069C436.88 190.861 437.277 190.638 437.674 190.415C437.701 190.401 437.714 190.387 437.74 190.373C438.786 189.761 439.819 189.121 440.838 188.439C441.116 188.258 441.394 188.077 441.672 187.868C442.082 187.604 442.479 187.312 442.863 187.02C443.379 186.644 443.895 186.254 444.399 185.851C444.566 185.738 444.725 185.612 444.875 185.475C446.106 184.501 447.297 183.471 448.436 182.385C457.068 174.298 463.225 163.701 466.128 151.935C469.031 140.168 468.549 127.76 464.743 116.282L464.743 116.282ZM447.443 178.795C446.01 180.212 444.508 181.55 442.942 182.803C442.599 183.081 442.241 183.36 441.884 183.61C441.539 183.888 441.195 184.153 440.838 184.403C440.534 184.626 440.229 184.849 439.911 185.057C439.885 185.085 439.845 185.099 439.819 185.127C439.593 185.294 439.355 185.447 439.13 185.6C438.429 186.059 437.701 186.519 436.986 186.95C436.814 187.047 436.655 187.159 436.483 187.256C436.39 187.312 436.298 187.367 436.192 187.423C435.795 187.66 435.397 187.868 435 188.091C434.947 188.133 434.881 188.147 434.828 188.189C434.808 188.192 434.79 188.202 434.775 188.216C434.498 188.37 434.22 188.509 433.942 188.648C433.703 188.773 433.478 188.898 433.24 189.01C432.274 189.497 431.281 189.956 430.288 190.387C429.242 190.833 428.184 191.236 427.111 191.612C426.846 191.709 426.568 191.821 426.29 191.904C425.033 192.322 423.776 192.698 422.491 193.004C419.936 193.657 417.34 194.118 414.722 194.381C413.001 194.548 411.254 194.632 409.507 194.632C407.812 194.632 406.131 194.562 404.45 194.395C401.451 194.107 398.48 193.558 395.568 192.753C395.462 192.725 395.343 192.698 395.237 192.67C392.848 192.015 390.508 191.178 388.234 190.165C388.116 190.109 387.983 190.067 387.877 190.012C387.745 189.956 387.626 189.914 387.52 189.858C387.387 189.803 387.268 189.747 387.149 189.691C386.157 189.232 385.19 188.731 384.224 188.216L383.773 187.966C382.913 187.493 382.066 187.006 381.232 186.463C380.941 186.296 380.637 186.101 380.345 185.906C380.014 185.697 379.684 185.475 379.366 185.252C379.287 185.196 379.207 185.141 379.128 185.085C378.386 184.556 377.632 184.027 376.917 183.457C376.414 183.067 375.924 182.692 375.435 182.288C375.117 182.037 374.799 181.773 374.495 181.495C374.296 181.342 374.098 181.161 373.899 180.98C373.635 180.743 373.37 180.507 373.105 180.256C372.695 179.908 372.311 179.519 371.94 179.157C370.449 177.713 369.04 176.179 367.717 174.564C367.268 174.035 366.844 173.507 366.434 172.95C366.338 172.84 366.25 172.724 366.169 172.602C359.505 163.757 355.433 153.065 354.451 141.829C353.468 130.593 355.618 119.3 360.636 109.326C365.655 99.3525 373.326 91.1301 382.714 85.6621C392.101 80.194 402.8 77.7167 413.504 78.5323C424.208 79.348 434.455 83.4213 442.995 90.2553C451.534 97.0894 457.998 106.389 461.596 117.019C465.194 127.649 465.772 139.151 463.259 150.12C460.746 161.09 455.25 171.053 447.443 178.795L447.443 178.795Z" fill="#577B97"/>
<path d="M143.002 449L153.165 448.999L158 407L143 407.001L143.002 449Z" fill="#FFB6B6"/>
<path d="M139 445.001L160.376 445H160.377C163.99 445 167.455 446.531 170.01 449.255C172.564 451.979 174 455.674 174 459.527V459.999L139.001 460L139 445.001Z" fill="#2F2E41"/>
<path d="M183.002 449L193.165 448.999L198 407L183 407.001L183.002 449Z" fill="#FFB6B6"/>
<path d="M180 445.001L200.155 445H200.156C203.562 445 206.829 446.531 209.238 449.255C211.646 451.979 213 455.674 213 459.527V459.999L180.001 460L180 445.001Z" fill="#2F2E41"/>
<path d="M110.237 280.003C111.109 279.015 111.765 277.836 112.16 276.55C112.555 275.264 112.679 273.902 112.523 272.56C112.367 271.218 111.935 269.928 111.257 268.782C110.58 267.635 109.673 266.66 108.602 265.925L116 234L100.807 239.734L96.111 269.171C95.0644 271.16 94.743 273.486 95.2075 275.709C95.6721 277.932 96.8905 279.898 98.6317 281.233C100.373 282.568 102.516 283.18 104.655 282.954C106.794 282.727 108.78 281.677 110.237 280.003V280.003Z" fill="#FFB6B6"/>
<path d="M223.763 278.064C222.891 277.096 222.235 275.942 221.84 274.682C221.445 273.422 221.321 272.088 221.477 270.773C221.633 269.458 222.065 268.195 222.743 267.072C223.42 265.949 224.327 264.994 225.398 264.274L218 233L233.193 238.617L237.889 267.454C238.936 269.402 239.257 271.681 238.792 273.858C238.328 276.036 237.11 277.961 235.368 279.269C233.627 280.577 231.484 281.177 229.345 280.955C227.206 280.733 225.22 279.704 223.763 278.064V278.064Z" fill="#FFB6B6"/>
<path d="M124 258.088L138.65 438.579L160.086 436.524L168.665 297.029L176.302 352.263L177.831 440L197.229 438.64L208 344.253L205.358 252.843L131.718 245L124 258.088Z" fill="#2F2E41"/>
<path d="M164.5 94C176.926 94 187 83.7026 187 71C187 58.2975 176.926 48 164.5 48C152.074 48 142 58.2975 142 71C142 83.7026 152.074 94 164.5 94Z" fill="#FFB6B6"/>
<path d="M156.631 52.5718C156.631 52.5718 167.063 55.4391 172.466 56.586C177.868 57.7329 177.309 54.4833 177.309 54.4833C177.309 54.4833 184.388 55.4391 184.016 54.6744C183.643 53.9098 186.996 49.8957 183.084 45.308C179.172 40.7204 180.29 37.2797 180.29 37.2797H176.937L176.005 35.9416H170.789C170.789 35.9416 165.022 30.7528 154.776 32.282C144.53 33.8111 132.413 37.8532 131.295 44.1611C131.144 45.0168 130.944 45.9673 130.712 46.9713C127.911 59.1082 133.864 70.4641 140.038 81.2081C141.555 83.8485 148.895 89.6063 148.707 85.6559C148.52 81.7056 142.1 72.8338 146.571 72.2604C151.042 71.6869 158.68 60.0267 156.631 52.5718Z" fill="#2F2E41"/>
<path d="M141.752 102H180.56L208 256.327C208 256.327 184.077 258.505 170.404 263.965C156.73 269.426 134 251.492 134 251.492L141.752 102Z" fill="#BBDFFA"/>
<path d="M146.395 119.441V102.028L141.893 102L109 123.718L116.137 242.711C116.137 242.711 124.585 282.409 137.398 281.997C150.211 281.585 160.091 140.065 146.395 119.441Z" fill="#2F2E41"/>
<path d="M119.158 127.264L109 124C109 124 101.48 126.361 101.48 134.486C101.48 142.611 95 258.049 95 258.049L115.584 260L120 201.292L119.158 127.264Z" fill="#2F2E41"/>
<path d="M178.188 113.235L176.093 101.935L182.107 101L203.882 110.063C203.882 110.063 223.478 259.151 214.769 263.682C206.059 268.214 200.178 264.703 200.178 264.703C200.178 264.703 171.531 154.744 176.602 139.881L178.188 113.235Z" fill="#2F2E41"/>
<path d="M188 112.078L191.733 110.394C191.733 110.394 202.691 104.765 208.908 116.132C215.125 127.499 237 254.491 237 254.491L219.001 258L205.545 212.297L188 112.078Z" fill="#2F2E41"/>
<path d="M332.131 460H0.869452C0.638859 460 0.41771 459.895 0.254656 459.707C0.091602 459.52 0 459.265 0 459C0 458.735 0.091602 458.48 0.254656 458.293C0.41771 458.105 0.638859 458 0.869452 458H332.131C332.361 458 332.582 458.105 332.745 458.293C332.908 458.48 333 458.735 333 459C333 459.265 332.908 459.52 332.745 459.707C332.582 459.895 332.361 460 332.131 460Z" fill="#577B97"/>
</svg>
