<svg width="75" height="80" viewBox="0 0 75 80" fill="none" xmlns="http://www.w3.org/2000/svg">
<path d="M74.2867 23.525C74.3141 22.2795 73.9999 21.0503 73.3781 19.9708C72.7257 18.911 71.8027 18.0441 70.704 17.4595C60.811 11.9969 50.9134 6.53712 41.0109 1.08021C39.817 0.361957 38.4476 -0.0118175 37.0543 0.000284834C35.661 0.0123871 34.2983 0.409895 33.117 1.14878C29.18 3.3744 9.47516 14.1911 3.60112 17.4509C2.48331 18.0124 1.55017 18.883 0.912556 19.9592C0.274939 21.0354 -0.0403537 22.272 0.00413478 23.5221V56.4893C-0.0247281 57.7066 0.27111 58.9097 0.861241 59.9748C1.51739 61.0652 2.46015 61.9546 3.58684 62.5461C9.46087 65.806 29.1686 76.6227 33.1056 78.8483C34.2863 79.5881 35.6488 79.9866 37.0421 79.9997C38.4353 80.0128 39.8051 79.64 40.9995 78.9226C50.8848 73.4542 60.7758 67.9945 70.6725 62.5433C71.7994 61.9509 72.7429 61.0618 73.401 59.972C73.9911 58.9068 74.287 57.7038 74.2581 56.4864V23.525" fill="#577B97"/>
<path d="M47.4307 45.7754C46.158 48.0387 44.1728 49.8178 41.7841 50.8359C39.3954 51.8539 36.7371 52.0537 34.2231 51.4042C31.709 50.7547 29.4802 49.2923 27.8835 47.2447C26.2868 45.197 25.4118 42.679 25.3946 40.0824C25.3775 37.4859 26.2191 34.9565 27.7887 32.888C29.3582 30.8194 31.5675 29.3277 34.0727 28.6451C36.578 27.9624 39.2386 28.1271 41.6406 29.1134C44.0425 30.0998 46.0511 31.8525 47.3535 34.0988L57.6817 28.1762C55.0601 23.6772 51.0321 20.165 46.218 18.1805C41.4039 16.1961 36.0709 15.8495 31.0405 17.1941C26.0101 18.5388 21.5613 21.5001 18.3795 25.6219C15.1976 29.7437 13.4593 34.7973 13.4321 40.0043C13.427 44.1332 14.511 48.1905 16.5749 51.7666C18.6648 55.3787 21.6689 58.3768 25.2851 60.4595C28.9012 62.5423 33.0021 63.6362 37.1752 63.6312C41.3482 63.6263 45.4465 62.5227 49.0577 60.4315C52.669 58.3402 55.666 55.335 57.7474 51.718L47.4307 45.7754Z" fill="#163B57"/>
<path d="M70.4868 37.9216V34.3847H67.6098V31.5105H64.0699V34.3847H59.7615V31.5105H56.2217V34.3847H53.3418V37.9216H56.216V42.2443H53.3418V45.7785H56.216V48.6526H59.7558V45.7785H64.067V48.6526H67.6069V45.7785H70.4811V42.2443H67.624V37.9216H70.4868ZM64.0699 42.2443H59.7615V37.9216H64.0699V42.2443Z" fill="#163B57"/>
</svg>
