<svg width="71" height="80" viewBox="0 0 71 80" fill="none" xmlns="http://www.w3.org/2000/svg">
<path d="M6.41714 72.0029L0 0H70.5371L64.1114 71.9914L35.2257 80L6.41714 72.0029Z" fill="#577B97"/>
<path d="M35.2686 73.8801L58.6114 67.4087L64.1028 5.88867H35.2686V73.8801Z" fill="#577B97"/>
<path d="M35.2686 31.9746H46.9543L47.76 22.9318H35.2686V14.1003H57.4114L57.2 16.4689L55.0314 40.8061H35.2686V31.9746V31.9746Z" fill="#163B57"/>
<path d="M35.3227 54.9089L35.2827 54.9203L25.4484 52.2632L24.8198 45.2203H15.9541L17.1912 59.0861L35.2798 64.1089L35.3227 64.0975V54.9089V54.9089Z" fill="#163B57"/>
<path d="M46.2029 40.4314L45.1401 52.2571L35.2915 54.9143V64.1028L53.3944 59.0857L53.5287 57.5943L55.0629 40.4314H46.2029V40.4314Z" fill="#163B57"/>
<path d="M35.3001 14.1003V22.9318H13.9687L13.7915 20.9461L13.3887 16.4689L13.1772 14.1003H35.3001V14.1003Z" fill="#163B57"/>
<path d="M35.2686 31.9744V40.8058H25.5571L25.38 38.8201L24.98 34.3429L24.7686 31.9744H35.2686V31.9744Z" fill="#163B57"/>
</svg>
