<svg width="54" height="80" viewBox="0 0 54 80" fill="none" xmlns="http://www.w3.org/2000/svg">
<path d="M13.3333 79.9999C20.6932 79.9999 26.6665 74.0266 26.6665 66.6666V53.3334H13.3333C5.9733 53.3334 0 59.3067 0 66.6666C0 74.0266 5.9733 79.9999 13.3333 79.9999Z" fill="#577B97"/>
<path d="M0 39.9994C0 32.6394 5.9733 26.6661 13.3333 26.6661H26.6665V53.3327H13.3333C5.9733 53.3327 0 47.3594 0 39.9994Z" fill="#577B97"/>
<path d="M0 13.3333C0 5.9733 5.9733 0 13.3333 0H26.6665V26.6665H13.3333C5.9733 26.6665 0 20.6932 0 13.3333Z" fill="#577B97"/>
<path d="M26.6665 0H39.9998C47.3597 0 53.333 5.9733 53.333 13.3333C53.333 20.6932 47.3597 26.6665 39.9998 26.6665H26.6665V0Z" fill="#577B97"/>
<path d="M53.333 39.9994C53.333 47.3594 47.3597 53.3327 39.9998 53.3327C32.6398 53.3327 26.6665 47.3594 26.6665 39.9994C26.6665 32.6394 32.6398 26.6661 39.9998 26.6661C47.3597 26.6661 53.333 32.6394 53.333 39.9994Z" fill="#577B97"/>
</svg>
