<svg width="35" height="40" viewBox="0 0 35 40" fill="none" xmlns="http://www.w3.org/2000/svg">
<path d="M18.6143 0.936462L1.10432 10.5139" stroke="#BBDFFA" stroke-width="1.5"/>
<path d="M1.5 9.86466L1.5 29.221" stroke="#BBDFFA" stroke-width="1.5"/>
<path d="M18.7949 38.458L1.12926 28.5717" stroke="#BBDFFA" stroke-width="1.5"/>
<path d="M18.0386 38.4758L33.8512 28.5033" stroke="#BBDFFA" stroke-width="1.5"/>
<path d="M33.5 10.0823V29.1416" stroke="#BBDFFA" stroke-width="1.5"/>
<path d="M17.8643 0.916152L33.8635 10.7243" stroke="#BBDFFA" stroke-width="1.5"/>
<path d="M22.256 14.924C22.144 15.108 22.028 15.244 21.908 15.332C21.796 15.412 21.648 15.452 21.464 15.452C21.288 15.452 21.096 15.392 20.888 15.272C20.688 15.144 20.452 15.008 20.18 14.864C19.908 14.72 19.596 14.588 19.244 14.468C18.892 14.34 18.48 14.276 18.008 14.276C17.176 14.276 16.552 14.464 16.136 14.84C15.72 15.208 15.512 15.692 15.512 16.292C15.512 16.676 15.624 16.996 15.848 17.252C16.08 17.5 16.38 17.716 16.748 17.9C17.124 18.084 17.548 18.248 18.02 18.392C18.492 18.536 18.976 18.696 19.472 18.872C19.968 19.04 20.452 19.24 20.924 19.472C21.396 19.704 21.816 19.996 22.184 20.348C22.56 20.7 22.86 21.132 23.084 21.644C23.316 22.148 23.432 22.764 23.432 23.492C23.432 24.284 23.292 25.028 23.012 25.724C22.74 26.412 22.344 27.016 21.824 27.536C21.304 28.048 20.66 28.452 19.892 28.748C19.132 29.044 18.268 29.192 17.3 29.192C16.748 29.192 16.196 29.136 15.644 29.024C15.1 28.912 14.572 28.756 14.06 28.556C13.556 28.356 13.08 28.116 12.632 27.836C12.184 27.556 11.792 27.244 11.456 26.9L12.512 25.196C12.6 25.068 12.716 24.964 12.86 24.884C13.004 24.796 13.156 24.752 13.316 24.752C13.532 24.752 13.76 24.832 14 24.992C14.24 25.152 14.516 25.328 14.828 25.52C15.14 25.712 15.5 25.888 15.908 26.048C16.324 26.208 16.82 26.288 17.396 26.288C18.236 26.288 18.884 26.096 19.34 25.712C19.804 25.328 20.036 24.756 20.036 23.996C20.036 23.556 19.92 23.2 19.688 22.928C19.464 22.656 19.168 22.428 18.8 22.244C18.432 22.06 18.012 21.904 17.54 21.776C17.068 21.64 16.584 21.492 16.088 21.332C15.592 21.172 15.108 20.98 14.636 20.756C14.164 20.532 13.744 20.236 13.376 19.868C13.008 19.5 12.708 19.044 12.476 18.5C12.252 17.956 12.14 17.28 12.14 16.472C12.14 15.824 12.268 15.196 12.524 14.588C12.78 13.98 13.156 13.44 13.652 12.968C14.148 12.496 14.756 12.116 15.476 11.828C16.204 11.54 17.036 11.396 17.972 11.396C19.02 11.396 19.988 11.56 20.876 11.888C21.772 12.208 22.528 12.656 23.144 13.232L22.256 14.924Z" fill="#BBDFFA"/>
</svg>
