<svg width="80" height="80" viewBox="0 0 80 80" fill="none" xmlns="http://www.w3.org/2000/svg">
<circle cx="40" cy="40" r="40" fill="#577B97"/>
<path d="M38.8411 7.67029L40.5089 10.8029C40.8839 11.3809 41.2901 11.8926 41.7686 12.3692C43.165 13.7655 44.491 15.2283 45.6823 16.7946C48.5083 20.5053 50.4144 24.626 51.7756 29.0827C52.592 31.8052 53.0353 34.598 53.0685 37.422C53.2052 45.8647 50.3109 53.1141 44.4754 59.1391C43.5223 60.0921 42.5029 60.9749 41.4092 61.76C40.8311 61.76 40.5577 61.3167 40.3195 60.9085C39.8761 60.1605 39.6047 59.307 39.468 58.4575C39.2629 57.4361 39.1281 56.4147 39.1945 55.3601V54.8835C39.1477 54.782 38.6379 7.9105 38.8411 7.67029Z" fill="#163B57"/>
<path d="M38.8409 7.56719C38.7726 7.43048 38.7042 7.53399 38.6358 7.60039C38.669 8.28393 38.4308 8.89326 38.0578 9.47525C37.6476 10.0533 37.1047 10.4967 36.5598 10.9732C33.5327 13.5941 31.1501 16.7599 29.242 20.3006C26.7031 25.0659 25.3947 30.1729 25.0236 35.5495C24.8537 37.4888 25.6368 44.332 26.2481 46.3065C27.9159 51.5483 30.9118 55.9405 34.7924 59.7527C35.7454 60.6706 36.7649 61.5221 37.8195 62.3404C38.1261 62.3404 38.1593 62.067 38.2296 61.8639C38.3641 61.4293 38.4665 60.9854 38.5362 60.5359L39.2198 55.4308L38.8409 7.56719Z" fill="#163B57"/>
<path d="M40.5086 63.8345C40.5769 63.0533 40.9519 62.4049 41.3601 61.7585C40.95 61.5886 40.6453 61.2507 40.407 60.8738C40.202 60.534 40.0321 60.1258 39.8993 59.7508C39.4227 58.3212 39.3212 56.8214 39.1845 55.3605V54.4758C39.0146 54.6125 38.9794 55.7687 38.9794 55.9406C38.88 57.4845 38.6751 59.0199 38.3662 60.5359C38.2646 61.1492 38.1963 61.7604 37.8193 62.3053C37.8193 62.3737 37.8193 62.442 37.8525 62.5436C38.4658 64.3481 38.6337 66.1859 38.7372 68.0588V68.7423C38.7372 69.5587 38.704 69.3868 39.3817 69.6602C39.6551 69.7618 39.9598 69.7969 40.2332 70.0001C40.4383 70.0001 40.4715 69.8301 40.4715 69.6934L40.3699 68.5705V65.4379C40.3367 64.8911 40.4383 64.3481 40.5066 63.8365L40.5086 63.8345Z" fill="#163B57"/>
</svg>
