<svg width="80" height="80" viewBox="0 0 80 80" fill="none" xmlns="http://www.w3.org/2000/svg">
<circle cx="40" cy="40" r="40" fill="#577B97"/>
<path d="M51.0498 24.8439L44.0287 27.1365L37.9205 29.8324L36.2116 30.2835C35.7764 30.6975 35.32 31.1168 34.8265 31.5413C34.2852 32.0083 33.781 32.4329 33.3935 32.7407C32.9637 33.0803 32.3269 33.7172 32.0032 34.1204C31.5202 34.7254 31.1381 35.3675 30.9736 35.8611C30.6817 36.7527 30.8251 37.6549 31.3876 38.4881C32.1093 39.5494 33.5475 40.632 35.2245 41.3697C36.0789 41.7466 37.5171 42.2294 38.5997 42.5001C40.3987 42.9565 43.8801 43.45 45.7959 43.5244C46.1832 43.5403 46.7033 43.5403 46.7245 43.5244C46.767 43.4978 47.0642 42.93 47.4092 42.2242C48.5874 39.8201 49.4365 37.5646 49.8981 35.6383C50.1741 34.4708 50.3916 32.9158 50.5349 31.0744C50.5721 30.5596 50.5879 28.8348 50.5561 28.251C50.5083 27.2958 50.4234 26.5211 50.2908 25.7621C50.2696 25.6507 50.2642 25.5498 50.2749 25.5445C50.296 25.5286 50.3597 25.5074 51.2248 25.2579L51.0497 24.844V24.8439H51.0498V24.8439ZM49.4471 25.7833C49.5108 25.7833 49.6806 27.4124 49.723 28.4421C49.7337 28.6596 49.7283 28.8029 49.7177 28.8029C49.6753 28.8029 48.8208 28.2988 48.2106 27.9167C47.6799 27.5824 46.6716 26.9137 46.5124 26.7863C46.4593 26.7492 46.4645 26.7439 46.8998 26.5952C47.6374 26.3458 49.3888 25.7833 49.4471 25.7833V25.7833ZM45.8702 26.9614C45.918 26.9614 46.04 27.0303 46.3319 27.2108C47.4251 27.8954 48.9111 28.7233 49.5479 28.9993C49.7442 29.0842 49.7654 29.0523 49.3144 29.3602C48.3485 30.0182 47.1438 30.6656 45.6685 31.3184C45.4085 31.4352 45.1909 31.5253 45.1856 31.5253C45.175 31.5253 45.2068 31.3928 45.2492 31.2335C45.6048 29.912 45.8065 28.5747 45.8171 27.5027C45.8224 26.972 45.8224 26.972 45.8702 26.9561C45.8596 26.9614 45.8648 26.9614 45.8702 26.9614V26.9614ZM45.1326 27.2427C45.1643 27.2745 45.1432 28.4633 45.1007 28.787C45.0052 29.5618 44.8566 30.2835 44.6125 31.0955C44.5541 31.2918 44.501 31.4564 44.4905 31.467C44.4691 31.4935 43.7421 30.7823 43.5033 30.5064C43.0893 30.0288 42.7657 29.5511 42.5268 29.0841C42.4048 28.8453 42.2138 28.3784 42.2297 28.3624C42.3146 28.304 45.1113 27.2215 45.1326 27.2427ZM41.6618 28.6065C41.6671 28.6065 41.6724 28.6065 41.6777 28.6118C41.6883 28.6224 41.7255 28.7074 41.7574 28.8029C41.9271 29.2646 42.3092 29.9439 42.6383 30.379C42.9992 30.8567 43.4715 31.3661 43.8641 31.7004C43.9916 31.8066 44.1082 31.9074 44.1241 31.9233C44.156 31.9552 44.1666 31.9498 43.3016 32.2789C42.2987 32.661 41.2054 33.0431 39.9529 33.4464C39.6537 33.5428 39.3548 33.6402 39.0562 33.7383C39.0083 33.7543 39.0243 33.7277 39.1623 33.5101C39.7831 32.5389 40.7277 30.6338 41.2585 29.2858C41.3487 29.0523 41.4389 28.8188 41.4549 28.7657C41.4761 28.6914 41.5026 28.6649 41.5715 28.6277C41.6087 28.6172 41.6459 28.6065 41.6618 28.6065V28.6065ZM40.6005 29.047C40.6164 29.0577 40.3457 29.6254 40.0804 30.1455C39.5656 31.1485 39.003 32.1357 38.2495 33.335C38.1221 33.542 38.0001 33.7331 37.9841 33.7543C37.9576 33.7914 37.947 33.7808 37.8621 33.6163C37.6816 33.2607 37.533 32.8043 37.4534 32.385C37.3738 31.9711 37.3897 31.2494 37.48 30.8036C37.5489 30.4746 37.5437 30.4799 37.7028 30.4003C38.3821 30.0554 40.5792 29.0258 40.6005 29.047V29.047ZM49.7549 29.4185V29.6414C49.7549 30.8249 49.6276 32.4488 49.4417 33.6323C49.4099 33.8392 49.3833 34.009 49.3781 34.0143C49.3781 34.0143 49.2242 33.9719 49.0437 33.9188C48.2477 33.6693 47.3827 33.3032 46.6025 32.8734C46.0877 32.5921 45.3395 32.1303 45.3607 32.1091C45.366 32.1038 45.5889 31.9871 45.8489 31.8491C46.8892 31.3078 47.8868 30.724 48.7518 30.1456C49.0756 29.928 49.5637 29.5778 49.67 29.4822L49.7549 29.4185ZM36.5937 30.9893C36.6149 30.9893 36.6096 31.0317 36.5777 31.2228C36.5565 31.3608 36.53 31.6156 36.5194 31.7906C36.4769 32.5654 36.6043 33.1386 36.9864 33.924C37.0926 34.1416 37.1775 34.3221 37.1721 34.3273C37.135 34.3592 33.6219 35.3888 32.5179 35.6913C32.1889 35.7814 31.9024 35.8611 31.8811 35.8663C31.844 35.877 31.8387 35.8717 31.8546 35.7814C31.9766 35.0013 32.571 33.9824 33.3989 33.1226C33.9508 32.5495 34.3913 32.2152 35.1449 31.7853C35.6862 31.4775 36.5194 31.0159 36.583 30.9946C36.5831 30.9893 36.5884 30.9893 36.5937 30.9893V30.9893ZM44.8725 32.4699C44.8778 32.4646 45.0052 32.5337 45.159 32.6239C46.2947 33.2819 47.8762 33.8923 49.2241 34.2053L49.3462 34.2319L49.1764 34.3273C48.4706 34.7201 46.1514 35.6859 43.7793 36.5722C43.4343 36.6995 43.0947 36.8269 43.0309 36.8534C42.9672 36.8799 42.9088 36.8959 42.9088 36.8906C42.9088 36.8852 43.0044 36.6995 43.1264 36.4714C43.7898 35.2295 44.4585 33.7171 44.7981 32.6663C44.8407 32.5655 44.8671 32.4753 44.8725 32.4699V32.4699ZM44.0287 32.7459C44.0341 32.7513 43.9916 32.8627 43.9385 32.99C43.4768 34.1098 42.8717 35.3305 42.097 36.6996C41.9007 37.0499 41.7361 37.3312 41.7307 37.3312C41.7255 37.3312 41.5662 37.2356 41.3752 37.1189C40.2501 36.4289 39.2524 35.5799 38.5997 34.7573L38.5041 34.6405L38.987 34.5078C40.7171 34.0356 42.1871 33.5261 43.6466 32.8999C43.8536 32.815 44.0234 32.7459 44.0287 32.7459V32.7459ZM49.272 34.5768C49.272 34.5768 49.2773 34.5821 49.272 34.5768C49.2773 34.6989 49.0066 35.7921 48.7837 36.5828C48.598 37.2461 48.4387 37.7663 48.1469 38.6843C48.0195 39.0877 47.9081 39.422 47.9027 39.422C47.8975 39.422 47.8656 39.4167 47.8338 39.4061C46.2576 39.1195 44.846 38.7215 43.5192 38.1908C43.1477 38.0422 42.6171 37.8033 42.5852 37.7768C42.5746 37.7661 42.8931 37.6176 43.2964 37.4425C45.711 36.3864 48.2159 35.187 49.0756 34.6723C49.1764 34.6086 49.256 34.5768 49.272 34.5768V34.5768ZM37.1669 34.9908C37.1775 35.0014 36.5035 35.9726 35.5588 37.294C35.2298 37.7557 34.8477 38.297 34.7045 38.4986C34.5611 38.7003 34.3436 39.0187 34.2215 39.2098L33.9985 39.5547L33.7597 39.3531C33.4784 39.1195 32.9902 38.6207 32.7727 38.3447C32.3162 37.7769 32.0085 37.1773 31.8864 36.6307C31.828 36.3759 31.828 36.2485 31.881 36.2327C31.9606 36.2114 33.3776 35.8771 34.7044 35.5692C35.4421 35.3994 36.2964 35.1978 36.6042 35.1235C36.9121 35.0491 37.1616 34.9908 37.1669 34.9908V34.9908ZM37.8461 35.2508L38.0159 35.4419C38.7802 36.2963 39.5603 36.9279 40.5049 37.4797C40.6748 37.5753 40.8021 37.6601 40.7914 37.6655C40.7544 37.6921 37.5117 38.8435 36.0099 39.3636C35.1661 39.6608 34.4709 39.8996 34.4657 39.8996C34.4604 39.8996 34.4126 39.8678 34.3594 39.8307L34.264 39.7616L34.4178 39.5388C34.9167 38.817 35.543 38.0263 36.9068 36.3812L37.8461 35.2508ZM42.0811 38.281C42.0863 38.2758 42.3198 38.3606 42.6064 38.4669C43.2964 38.7269 43.8429 38.8913 44.5753 39.0771C45.4775 39.3053 46.783 39.5282 47.5525 39.5919C47.6693 39.6024 47.733 39.6131 47.7117 39.6291C47.6745 39.6503 46.8945 39.9103 46.3213 40.0908C45.4085 40.3773 42.6224 41.1998 40.351 41.8526C39.9318 41.9747 39.5709 42.0755 39.5496 42.0808C39.4966 42.0915 39.3214 42.0436 39.3214 42.0224C39.3214 42.0119 39.4488 41.8474 39.6027 41.6669C40.3669 40.7541 41.1258 39.7352 41.7574 38.7693C41.9324 38.5039 42.0811 38.2863 42.0811 38.281ZM41.147 38.3076C41.1523 38.3129 40.7755 38.9179 40.1176 39.958C39.8362 40.3985 39.5231 40.8973 39.4116 41.0725C39.3055 41.2423 39.1463 41.5077 39.0561 41.6562L38.9022 41.9269L38.8226 41.9057C38.6315 41.8526 37.2889 41.3802 36.9333 41.237C36.4928 41.0618 36.0364 40.8496 35.6967 40.6692C35.2722 40.4409 34.7416 40.1013 34.784 40.0907C34.7946 40.0854 35.5217 39.889 36.3973 39.6502C38.7217 39.0186 40.0113 38.6525 40.8551 38.3872C41.0091 38.3394 41.1417 38.3022 41.147 38.3076ZM47.7542 39.8572H47.7594C47.7807 39.9103 46.921 42.2984 46.6078 43.0519C46.5389 43.2217 46.5124 43.2643 46.4752 43.2589C46.385 43.2537 45.1379 43.0785 44.3789 42.967C43.0576 42.7654 40.8392 42.3779 40.282 42.2506L40.1547 42.2241L40.9453 42.0436C42.6436 41.6615 43.4608 41.4545 44.2887 41.1998C45.3342 40.8814 46.3691 40.4833 47.4145 39.9952C47.579 39.9208 47.717 39.8625 47.7542 39.8572Z" fill="#163B57"/>
<path d="M43.8112 8.47708C43.6944 8.46124 41.8104 9.14052 40.5952 9.634C38.9553 10.3028 37.6817 10.9396 36.8962 11.4914C36.6044 11.6985 36.2381 12.0646 36.1798 12.2079C36.1586 12.2609 36.1479 12.3246 36.1479 12.3883L36.8591 13.0623L38.552 13.6036L42.58 14.3253L47.1863 15.1161L47.2341 14.7181C47.2183 14.7181 47.2076 14.7128 47.1918 14.7128L46.5866 14.6172L46.4647 14.3997C45.8384 13.2958 45.1485 11.9266 44.7452 11.0032C44.4322 10.2867 44.1349 9.45895 43.9704 8.86455C43.8802 8.50368 43.8696 8.48246 43.8113 8.47718V8.47705H43.8112V8.47708ZM43.7262 8.74781H43.7316C43.7368 8.75305 43.7581 8.90174 43.7793 9.07677C43.8695 9.81984 44.0341 10.5362 44.2941 11.311C44.4904 11.8948 44.4904 11.863 44.2623 11.7939C43.721 11.6454 41.2957 11.2261 39.5391 10.982C39.2578 10.9449 39.019 10.9077 39.019 10.9024C38.9978 10.8812 40.2873 10.2072 40.8552 9.94191C41.5822 9.6075 43.5776 8.77432 43.7262 8.74781V8.74781ZM38.6103 11.1253L38.8174 11.1942C39.9424 11.5764 42.7709 12.1177 44.3312 12.245C44.5063 12.261 44.655 12.2769 44.6602 12.2769C44.6655 12.2822 44.517 12.3618 44.3259 12.452C43.5724 12.8288 42.7444 13.2905 42.1713 13.6461C42.0015 13.7522 41.8475 13.8371 41.8264 13.8371C41.8051 13.8371 41.6937 13.8159 41.577 13.8L41.3647 13.7681L40.834 13.248C39.9 12.3405 39.1676 11.6401 38.8863 11.3747L38.6103 11.1253V11.1253ZM38.3981 11.2898L39.1464 12.2238C39.555 12.7386 39.9689 13.2427 40.0592 13.3541C40.1493 13.4656 40.2237 13.5559 40.2184 13.5612C40.1972 13.5771 39.1358 13.3701 38.5732 13.2428C37.9948 13.1101 37.756 13.0464 37.4004 12.935L37.1085 12.8394V12.7651C37.1138 12.4095 37.5649 11.8788 38.3291 11.3376L38.3981 11.2898ZM44.7558 12.5634C44.777 12.5634 44.8035 12.6112 44.8672 12.7545C45.0476 13.1525 45.6103 14.2245 45.7481 14.4315C45.7907 14.5005 45.8649 14.5058 45.1167 14.3837C43.3177 14.0918 42.7391 13.9964 42.7391 13.9857C42.7391 13.9805 42.7922 13.9433 42.8612 13.9061C43.4185 13.5984 43.981 13.2056 44.4799 12.7864C44.6019 12.6855 44.7134 12.59 44.7345 12.574C44.7398 12.5634 44.7505 12.5582 44.7558 12.5634Z" fill="#163B57"/>
<path d="M36.2172 12.1338C36.2172 12.1338 36.1005 12.3196 36.2119 12.5956C36.281 12.7653 36.4826 12.9723 36.7108 13.1846C36.7108 13.1846 39.0723 15.4878 39.3589 15.8169C40.6644 17.324 41.2323 18.81 41.2853 20.8585C41.3172 22.1746 41.0677 23.3315 40.4468 24.6742C39.343 27.0835 37.0132 29.7423 33.4204 32.693L33.9459 32.5179C34.2855 32.2631 34.7472 31.9925 35.8298 31.3981C38.3293 30.0288 41.142 28.7711 44.5916 27.4762C49.5587 25.6081 57.7262 23.4216 62.375 22.7106L62.858 22.6362L62.7836 22.5195C62.3592 21.8614 62.0672 21.4528 61.7169 21.0176C60.698 19.7546 59.4616 18.7304 57.9491 17.8812C55.8687 16.7191 53.178 15.8116 49.7711 15.1376C49.1289 15.0102 47.7173 14.7661 46.571 14.591C44.1404 14.2143 42.5695 13.9542 40.8395 13.657C40.2187 13.5508 39.2899 13.3916 38.6743 13.259C38.3559 13.1899 37.7456 13.0467 37.268 12.8822C36.8859 12.7335 36.3339 12.5849 36.2172 12.1338V12.1338ZM37.5864 13.4606C37.5917 13.4553 37.6766 13.4871 37.7881 13.5243C37.9898 13.5932 38.2498 13.6728 38.5577 13.7578C38.7906 13.8218 39.0241 13.8837 39.2582 13.9435C39.5766 14.0231 39.8419 14.0974 39.8471 14.0974C39.8844 14.1345 40.4204 15.8486 40.6008 16.5067C40.6697 16.7561 40.7229 16.9684 40.7176 16.9684C40.7121 16.9738 40.6538 16.8835 40.5849 16.7614C39.9639 15.6682 38.9822 14.559 37.8464 13.6674C37.6979 13.5614 37.5864 13.4659 37.5864 13.4606ZM40.1974 14.1823C40.224 14.1823 40.3408 14.1982 40.484 14.2301C41.3862 14.4317 43.0048 14.7395 44.0396 14.9147C44.2148 14.9412 44.3528 14.9731 44.3528 14.9836C44.3528 14.9943 44.289 15.0314 44.2094 15.0739C44.0344 15.1641 43.3285 15.5833 43.095 15.7425C42.5059 16.1352 41.9753 16.5598 41.5931 16.9419C41.4393 17.0958 41.3065 17.2232 41.3065 17.2232C41.3065 17.2232 41.2748 17.133 41.2481 17.0214C41.0572 16.2838 40.6591 15.1905 40.2982 14.4211C40.2399 14.2991 40.1921 14.1876 40.1921 14.177C40.1921 14.1876 40.1921 14.1823 40.1974 14.1823V14.1823ZM44.7932 15.058C44.8251 15.0685 44.8781 15.249 44.9842 15.647C45.1806 16.4165 45.2709 17.2763 45.239 18.0776C45.2284 18.3005 45.2178 18.5074 45.2071 18.534L45.1912 18.587L44.9153 18.4969C44.3474 18.3164 43.4241 18.0457 42.6334 17.8229C42.1822 17.7008 41.8161 17.5894 41.8161 17.5788C41.8161 17.5469 42.4742 16.8888 42.7554 16.6394C43.2913 16.167 44.7454 15.042 44.7932 15.058V15.058ZM45.1594 15.111C45.1754 15.0951 47.3565 15.4718 48.3489 15.6629C49.0866 15.8062 50.1586 16.0291 50.2222 16.0557C50.2541 16.0662 50.1426 16.1299 49.787 16.2891C48.386 16.9207 47.3458 17.4885 46.3111 18.1784C46.0404 18.3589 45.8122 18.5074 45.8069 18.5074C45.8016 18.5074 45.7963 18.3536 45.7963 18.1678C45.7963 17.1595 45.5946 16.1406 45.223 15.2809C45.1859 15.1959 45.1541 15.1164 45.1594 15.111V15.111ZM50.8006 16.2255C50.8166 16.2414 50.7476 16.6713 50.6839 16.926C50.4929 17.7167 49.9781 18.8896 49.3467 19.9934C49.2351 20.1898 49.1343 20.349 49.1236 20.3543C49.1131 20.3596 48.9698 20.2799 48.8053 20.1844C48.1897 19.8236 47.4892 19.4839 46.7249 19.1655C46.5127 19.0753 46.3269 19.0009 46.3216 18.9904C46.2844 18.9585 47.9933 17.8282 48.8955 17.2869C49.6119 16.8517 50.7794 16.2042 50.8006 16.2255V16.2255ZM51.204 16.2891C51.2517 16.2891 52.2176 16.5545 52.7217 16.7031C53.9689 17.0746 55.4017 17.6 56.3357 18.0245L56.7231 18.1997L56.4525 18.2633C54.1706 18.7887 52.2176 19.3938 50.3336 20.1579C50.1797 20.2216 50.0417 20.2747 50.0312 20.2747C50.0205 20.2747 50.0736 20.1527 50.1426 20.004C50.7105 18.7994 51.0766 17.5416 51.1668 16.4695C51.1722 16.3687 51.188 16.2891 51.204 16.2891V16.2891ZM41.5879 18.4969C41.6037 18.4809 42.3414 18.6561 42.7395 18.7674C43.3444 18.9373 44.6287 19.3671 44.6287 19.399C44.6287 19.4043 44.4854 19.5264 44.3157 19.675C43.6205 20.2535 42.9517 20.8637 42.1503 21.6385C41.9115 21.8668 41.7099 22.0525 41.6993 22.0525C41.6887 22.0525 41.6835 22.0206 41.6887 21.9782C41.8107 21.0866 41.7843 19.9403 41.6144 18.7781C41.5984 18.6295 41.5826 18.5021 41.5879 18.4969V18.4969ZM57.0894 18.5128C57.0999 18.5234 56.7497 19.0753 56.5268 19.3884C56.2085 19.8447 55.7413 20.4499 54.6853 21.7766C54.1281 22.477 53.5018 23.2678 53.2949 23.5331C53.0826 23.7985 52.9075 24.0213 52.9021 24.0213C52.8968 24.0213 52.828 23.9259 52.7536 23.8091C52.1592 22.9175 51.448 22.1374 50.6042 21.4369C50.445 21.3042 50.27 21.1609 50.2116 21.1184C50.1532 21.076 50.1054 21.0335 50.1054 21.0283C50.1054 21.0124 51.0075 20.6249 51.6922 20.349C52.8916 19.8607 54.526 19.277 55.752 18.9001C56.3941 18.6985 57.0787 18.5021 57.0894 18.5128V18.5128ZM57.498 18.6189C57.5192 18.6136 57.6466 18.6773 57.8005 18.7674C59.0901 19.5051 60.3531 20.4551 61.3509 21.4316C61.6321 21.7076 62.3273 22.4293 62.3166 22.4346C62.3166 22.4346 62.0725 22.4558 61.786 22.477C59.5518 22.6469 56.6914 23.1191 53.9424 23.7825C53.7567 23.8249 53.5922 23.8621 53.5815 23.8621C53.571 23.8621 53.7779 23.6551 54.038 23.4057C55.6513 21.8508 56.389 20.869 57.2592 19.1177C57.3812 18.8577 57.4874 18.6348 57.498 18.6189C57.4927 18.6189 57.4927 18.6189 57.498 18.6189V18.6189ZM45.6795 19.8289C45.7538 19.8448 46.4437 20.1686 46.9638 20.4286C47.4414 20.6673 48.1579 21.0495 48.195 21.0813C48.2003 21.0866 47.9455 21.2193 47.6325 21.3732C46.6347 21.872 45.7804 22.3443 44.8887 22.8856C44.634 23.0396 44.4218 23.167 44.4165 23.167C44.3952 23.167 44.4005 23.1456 44.5438 22.8856C45.0215 22.0154 45.4035 20.9752 45.6212 19.9615C45.6423 19.8819 45.6636 19.8289 45.6795 19.8289V19.8289ZM44.9895 19.9562C45.0055 19.9722 44.8251 20.6249 44.7137 20.9805C44.496 21.6545 44.1298 22.4983 43.7743 23.1351C43.6893 23.2836 43.562 23.5012 43.493 23.6233L43.3604 23.8355L43.0632 23.5491C42.7183 23.2147 42.4369 23.0077 42.0761 22.8219C41.9328 22.7477 41.8214 22.684 41.8214 22.6734C41.8214 22.6309 42.7288 21.8084 43.424 21.214C43.9229 20.7841 44.9737 19.9403 44.9895 19.9562V19.9562ZM49.2087 21.6916L49.4687 21.8614C50.063 22.2489 50.7634 22.7636 51.2996 23.2147C51.602 23.4641 52.1857 23.9895 52.3026 24.1169L52.3661 24.1859L51.9364 24.308C49.5058 24.9819 47.6271 25.5816 45.4353 26.3883C45.1912 26.4785 44.9842 26.5528 44.9683 26.5528C44.9366 26.5528 44.9099 26.5793 45.4566 26.0751C46.8577 24.7856 48.0994 23.3633 49.0229 21.9781L49.2087 21.6916V21.6916ZM48.0995 21.9676C48.11 21.9782 47.383 23.0024 46.9478 23.5809C46.4277 24.2708 45.5043 25.4277 44.8675 26.1812C44.6022 26.4944 44.3741 26.7544 44.3634 26.7597C44.3474 26.765 44.3421 26.6854 44.3421 26.5634C44.3421 25.9212 44.1777 25.2366 43.891 24.6529C43.769 24.4087 43.7477 24.3503 43.7744 24.3238C43.8752 24.2336 45.4195 23.3526 46.3959 22.8273C47.054 22.477 48.0834 21.957 48.0995 21.9676V21.9676ZM41.3914 23.6128C41.4074 23.6128 41.5295 23.6764 41.6675 23.7507C42.0071 23.9364 42.3096 24.1434 42.5802 24.3664C42.5908 24.3769 42.4529 24.4884 42.2724 24.621C41.7683 24.9819 41.0041 25.5604 40.5584 25.916C40.0913 26.2875 40.0755 26.2981 40.1285 26.2185C40.4788 25.6824 40.6538 25.3799 40.8396 24.9926C41.0041 24.6477 41.1686 24.239 41.2853 23.8834C41.3278 23.7295 41.3809 23.6128 41.3914 23.6128ZM43.18 25.0137C43.2064 25.0085 43.2383 25.0562 43.3816 25.2685C43.6841 25.7195 43.9176 26.3246 43.976 26.8128L43.9865 26.919L43.2596 27.2003C41.9593 27.7044 40.76 28.2033 39.948 28.5747C39.7198 28.6809 39.3218 28.8719 39.0618 28.9994C38.8017 29.1319 38.5894 29.2328 38.5894 29.2275C38.5894 29.2222 38.7539 29.1002 38.9556 28.9515C40.5425 27.8 41.9169 26.5369 42.9464 25.2738C43.0579 25.1411 43.1588 25.0191 43.1693 25.0138L43.18 25.0137V25.0137ZM42.3574 25.2154C42.3786 25.2367 41.7737 25.9212 41.3597 26.3405C40.3355 27.386 39.3218 28.2033 38.064 28.9994C37.9049 29.1002 37.7616 29.1903 37.7456 29.201C37.7085 29.2222 37.7562 29.1691 38.3082 28.5694C38.6585 28.1926 38.9238 27.8742 39.2263 27.4816C39.4279 27.2216 39.4651 27.1844 39.757 26.9773C40.5371 26.4148 42.3361 25.1942 42.3574 25.2154Z" fill="#163B57"/>
<path d="M19.3763 47.1894C19.2784 47.1894 19.1805 47.1987 19.0835 47.1987C17.1061 47.3041 15.7725 48.1743 14.9927 49.8737C14.3258 51.4107 14.3987 53.4197 15.0002 54.9661C15.6998 56.4771 16.8301 57.2745 18.7169 57.5757C19.1161 57.6411 19.3838 57.8603 20.157 58.7631L21.1083 59.8777H22.8338L21.6865 58.7211C21.0523 58.0869 20.5393 57.5347 20.5393 57.4862C20.5393 57.4377 20.7819 57.3314 21.0756 57.2419C22.0437 56.9489 22.8477 56.2009 23.4101 55.0546C23.8652 54.1341 23.9305 53.8496 23.9958 52.7043C24.1665 49.2954 22.3692 47.1641 19.3762 47.1884L19.3763 47.1894V47.1894ZM20.8891 56.1041C20.0497 56.5106 18.8308 56.5918 18.0352 56.2999C17.2125 55.9978 16.416 55.1434 16.0578 54.1762C15.6596 53.1185 15.7165 51.1674 16.1716 50.2887C16.9038 48.8897 17.8719 48.2462 19.2868 48.2462C21.3853 48.2462 22.5791 49.5315 22.7349 51.9471C22.858 53.9636 22.1827 55.4764 20.89 56.1032L20.8891 56.1041V56.1041ZM50.6955 50.1013C49.9717 50.1013 49.4177 50.3942 49.0446 50.9714L48.7517 51.4285V50.2402H47.4992V57.366H48.7509V55.0884C48.7509 53.0056 48.7769 52.7622 49.0679 52.1923C49.469 51.4107 50.1591 51.0209 50.8261 51.2075L51.2737 51.3381V50.1032H50.6955V50.1013V50.1013ZM43.3367 50.0359C43.0913 50.0359 42.8311 50.0686 42.5719 50.1256C40.8958 50.5638 39.9511 52.1681 40.0089 53.819C40.0089 55.2013 40.2774 55.8923 40.9444 56.617C42.3108 57.7381 43.5465 57.8276 45.2141 57.2261C45.4986 57.1049 45.8083 56.965 45.8083 56.965V55.8439L45.2141 56.1517C43.8645 56.7392 42.8479 56.7392 42.0336 56.0472C41.5143 55.5183 41.2857 54.8841 41.1803 54.1604H46.2307V53.1996C46.2307 51.241 45.0519 50.0042 43.3357 50.0359H43.3367ZM41.2941 53.1605C41.2941 53.1605 41.4807 51.9387 42.1727 51.4593C42.5058 51.2242 42.8881 51.1105 43.262 51.1105C43.637 51.1105 44.011 51.2317 44.3197 51.4677C44.954 51.9555 45.0603 53.1512 45.0603 53.1512H41.2942V53.1605H41.2941ZM11.0969 51.8753C9.739 51.0526 9.13649 50.4594 9.21016 49.7599C9.42091 47.8245 11.8123 48.0922 13.1367 48.8244L13.1461 47.5224C13.1461 47.5224 12.4139 47.2053 11.3646 47.1885C9.75483 47.1643 8.71397 47.6921 8.22624 48.7666C7.50988 50.3521 8.14418 51.5478 10.4367 52.8816C11.7238 53.6305 12.2927 54.2807 12.2927 54.9895C12.2927 56.4538 10.5271 56.965 8.70566 56.0462C8.3308 55.8597 8.01365 55.7039 7.99687 55.7039C7.93154 56.119 7.96522 57.1123 7.96522 57.1123C7.96522 57.1123 8.52485 57.3474 9.36418 57.5095C11.4458 57.9245 13.3402 56.9481 13.5192 55.3625C13.675 53.874 13.1367 53.0933 11.097 51.8742L11.0969 51.8753V51.8753ZM61.7812 50.0192C61.5368 50.0192 61.2775 50.0528 61.007 50.1097C59.3329 50.548 58.3899 52.1523 58.4543 53.8032C58.4543 55.1836 58.722 55.8681 59.3888 56.5918C60.7553 57.7139 61.991 57.8043 63.6671 57.2019C63.9506 57.0807 64.2593 56.9427 64.2593 56.9427V55.8198L63.6662 56.1293C62.3138 56.7151 61.2971 56.7151 60.4858 56.023C59.9634 55.4951 59.7368 54.8684 59.6314 54.1362H64.6734V53.1755C64.6734 51.2262 63.4945 49.9885 61.7784 50.0212L61.7812 50.0192V50.0192ZM59.7386 53.1437C59.7386 53.1437 59.927 51.9237 60.6181 51.435C60.9502 51.1991 61.3325 51.0852 61.7065 51.0852C62.0796 51.0852 62.4555 51.2065 62.7643 51.4434C63.3985 51.9312 63.5049 53.1353 63.5049 53.1353H59.7396L59.7386 53.1437V53.1437ZM36.78 51.8911C35.422 51.0704 34.8213 50.4752 34.8941 49.7757C35.1048 47.8394 37.4963 48.1081 38.8207 48.8403L38.83 47.5383C38.83 47.5383 38.0978 47.2211 37.0485 47.2061C35.4388 47.1819 34.3979 47.7098 33.9093 48.7843C33.1939 50.3698 33.8365 51.5655 36.1215 52.8993C37.4068 53.6474 37.9757 54.2891 37.9757 54.9979C37.9757 56.4622 36.2111 56.9817 34.3896 56.0546C34.0165 55.868 33.6994 55.7141 33.6808 55.7141C33.6154 56.1291 33.6491 57.1225 33.6491 57.1225C33.6491 57.1225 34.2021 57.3492 35.0387 57.5198C37.1223 57.9358 39.0175 56.9601 39.1957 55.3746C39.3505 53.8935 38.8133 53.1128 36.78 51.8928V51.8911H36.78ZM69.1409 50.0845C68.4172 50.0845 67.8567 50.3782 67.4901 50.9556L67.1972 51.4107V50.2244H65.9446V57.3483H67.1963V55.0707C67.1963 52.9889 67.2214 52.7445 67.5135 52.1756C67.9145 51.395 68.6046 51.0042 69.2715 51.1916L69.7191 51.3221V50.0845H69.1409V50.0845ZM26.819 51.8501V47.3115H25.5563V57.3641H30.8669V56.1769H26.8191V51.8501H26.819ZM56.0229 53.2649L54.982 55.9735L53.9812 53.25L52.9646 50.2318H51.6719C52.5096 52.6065 53.4206 55.0221 54.3394 57.3641C54.7376 57.3734 55.1368 57.3641 55.535 57.3641L56.9406 53.8348L58.3723 50.2328H57.1365C57.1365 50.2328 56.5908 51.6635 56.022 53.2658L56.0229 53.2649V53.2649ZM29.729 44.5722C29.9323 44.5722 30.102 44.507 30.2419 44.3671C30.3799 44.229 30.4527 44.0667 30.4527 43.8634C30.4527 43.6601 30.3799 43.4903 30.2419 43.3597C30.102 43.2292 29.9406 43.1638 29.7382 43.1638C29.5331 43.1638 29.3633 43.2292 29.2253 43.3672C29.0854 43.5053 29.022 43.675 29.022 43.8709C29.022 44.0761 29.0873 44.2458 29.2253 44.3746C29.3559 44.5051 29.5256 44.5704 29.729 44.5704V44.5722V44.5722ZM29.2813 43.4157C29.4025 43.2945 29.5499 43.2385 29.7383 43.2385C29.9155 43.2385 30.0629 43.2945 30.1861 43.4157C30.3073 43.537 30.3726 43.6843 30.3726 43.8634C30.3726 44.0425 30.3073 44.1973 30.1861 44.3186C30.063 44.4397 29.9155 44.4976 29.7383 44.4976C29.5583 44.4976 29.4118 44.4416 29.2906 44.3186C29.1694 44.1973 29.1041 44.0425 29.1041 43.8634C29.1041 43.6843 29.1601 43.537 29.2813 43.4157ZM29.5825 43.9287H29.6646C29.7225 43.9287 29.7793 43.9847 29.8278 44.091L29.9258 44.3111H30.0797L29.9584 44.0666C29.909 43.9688 29.8606 43.9119 29.8036 43.8959C29.8754 43.8792 29.9323 43.8549 29.9734 43.8064C30.0143 43.7645 30.0293 43.7076 30.0293 43.6432C30.0293 43.5686 30.006 43.5127 29.9566 43.4716C29.9006 43.425 29.8111 43.3998 29.6954 43.3998H29.4362V44.3111H29.5667V43.9287L29.5825 43.9287V43.9287ZM29.5825 43.5053H29.6964C29.7784 43.5053 29.8363 43.522 29.868 43.5463C29.8988 43.5705 29.9071 43.6023 29.9071 43.6601C29.9071 43.7654 29.8418 43.8149 29.7206 43.8149H29.5807V43.5053H29.5825V43.5053ZM8.72231 43.8475C8.72231 43.5304 8.71302 43.2945 8.70554 43.1555H8.71302C8.74562 43.3196 8.78575 43.4418 8.81839 43.523L10.0308 46.2315H10.2342L11.4466 43.4987C11.4793 43.4242 11.512 43.3122 11.5521 43.1564H11.5613C11.5371 43.427 11.5287 43.662 11.5287 43.8494V46.2399H11.9437V42.6864H11.4233L10.3088 45.158C10.2677 45.2559 10.2108 45.4024 10.1381 45.5964H10.1212C10.097 45.5003 10.0401 45.3538 9.95899 45.1747L8.86957 42.6779H8.31656V46.2314H8.71573V43.8493L8.72231 43.8475V43.8475ZM12.8531 43.8542H13.2113V46.0674H12.8531V43.8542V43.8542ZM13.0322 43.0427C13.1069 43.0427 13.1703 43.0174 13.2187 42.9681C13.2682 42.9195 13.3009 42.8561 13.3009 42.7815C13.3009 42.7088 13.2766 42.6434 13.2197 42.595C13.1694 42.5456 13.105 42.5203 13.0313 42.5203C12.9586 42.5203 12.8933 42.5456 12.8447 42.595C12.7954 42.6434 12.7627 42.7088 12.7627 42.7815C12.7627 42.8627 12.7879 42.9195 12.8447 42.9681C12.9008 43.0174 12.9586 43.0427 13.0313 43.0427H13.0322ZM15.765 46.1159V45.726C15.5691 45.8725 15.3583 45.9453 15.1401 45.9453C14.879 45.9453 14.6672 45.8558 14.5124 45.6842C14.3585 45.5144 14.2765 45.2784 14.2765 44.9846C14.2765 44.6768 14.3585 44.4324 14.5282 44.2458C14.6915 44.0668 14.9032 43.9772 15.1625 43.9772C15.3742 43.9772 15.5774 44.0426 15.7651 44.1732V43.7582C15.5944 43.6686 15.3995 43.6276 15.1793 43.6276C14.7726 43.6276 14.4556 43.7582 14.2187 44.0101C13.9836 44.2619 13.8624 44.6042 13.8624 45.0174C13.8624 45.3848 13.9677 45.6936 14.187 45.9296C14.4155 46.172 14.7075 46.2952 15.0656 46.2952C15.3425 46.2875 15.5691 46.2297 15.765 46.1159V46.1159ZM16.79 44.936C16.79 44.6441 16.8552 44.4082 16.9765 44.2458C17.0903 44.0994 17.2283 44.0257 17.3915 44.0257C17.5296 44.0257 17.6275 44.0509 17.6993 44.1078V43.6843C17.6433 43.6601 17.5622 43.6517 17.4568 43.6517C17.3104 43.6517 17.1799 43.701 17.0651 43.7916C16.9439 43.8876 16.8469 44.0341 16.79 44.2207H16.7807V43.7011H16.375V46.238H16.7816V44.936H16.79V44.936ZM19.1245 46.2884C19.5069 46.2884 19.8147 46.1653 20.0431 45.921C20.2706 45.6783 20.3844 45.352 20.3844 44.9452C20.3844 44.5303 20.2801 44.2132 20.0674 43.9771C19.8566 43.7413 19.5637 43.6273 19.1813 43.6273C18.7988 43.6273 18.4911 43.7412 18.2626 43.9613C18.0183 44.2039 17.8895 44.5462 17.8895 44.9855C17.8895 45.3679 17.994 45.685 18.2142 45.921C18.4417 46.1653 18.743 46.2875 19.1245 46.2875V46.2884V46.2884ZM18.5462 44.2216C18.701 44.0583 18.9044 43.9771 19.1562 43.9771C19.4174 43.9771 19.6132 44.0583 19.7587 44.2216C19.9051 44.3923 19.9779 44.6357 19.9779 44.9612C19.9779 45.2708 19.9126 45.5143 19.7745 45.6775C19.6366 45.8482 19.4332 45.9386 19.1645 45.9386C18.9034 45.9386 18.701 45.8481 18.5462 45.6775C18.3924 45.5059 18.3186 45.2708 18.3186 44.9612C18.3028 44.6534 18.384 44.4016 18.5462 44.2216ZM22.165 46.0674C22.3198 45.9294 22.402 45.7596 22.402 45.5469C22.402 45.3603 22.3366 45.2055 22.2154 45.0834C22.1165 44.9855 21.9636 44.8968 21.7425 44.8073C21.5466 44.7253 21.4254 44.6524 21.3601 44.5955C21.2948 44.5303 21.2547 44.4492 21.2547 44.3344C21.2547 44.229 21.2958 44.1479 21.376 44.0826C21.4581 44.0174 21.5626 43.9857 21.7025 43.9857C21.9216 43.9857 22.1091 44.0435 22.2806 44.1657V43.759C22.1165 43.677 21.9384 43.6378 21.735 43.6378C21.4739 43.6378 21.2538 43.7097 21.0914 43.8485C20.9207 43.9867 20.8397 44.1657 20.8397 44.3764C20.8397 44.563 20.8956 44.7179 21.0018 44.8316C21.0914 44.9286 21.2445 45.0275 21.457 45.116C21.6604 45.2056 21.7984 45.2867 21.872 45.3519C21.9448 45.4173 21.9774 45.4984 21.9774 45.5946C21.9774 45.8314 21.8152 45.9537 21.498 45.9537C21.2537 45.9537 21.0346 45.8734 20.8386 45.7112V46.1494C21.0158 46.2558 21.2285 46.3043 21.4635 46.3043C21.7648 46.2884 22.0007 46.2148 22.163 46.0683L22.165 46.0674V46.0674ZM24.1013 43.6274C23.7188 43.6274 23.411 43.7413 23.1825 43.9614C22.94 44.204 22.8095 44.5462 22.8095 44.9855C22.8095 45.3679 22.9149 45.6851 23.1341 45.9211C23.3626 46.1654 23.6629 46.2875 24.0453 46.2875C24.437 46.2875 24.7355 46.1645 24.964 45.92C25.1925 45.6776 25.3062 45.3511 25.3062 44.9444C25.3062 44.5294 25.1999 44.2123 24.9891 43.9763C24.7691 43.7403 24.4761 43.6265 24.1031 43.6265L24.1013 43.6274V43.6274ZM24.8903 44.9612C24.8903 45.2708 24.825 45.5143 24.687 45.6775C24.5489 45.8482 24.3455 45.9386 24.0769 45.9386C23.8157 45.9386 23.6134 45.8482 23.4585 45.6775C23.3046 45.5059 23.231 45.2708 23.231 44.9612C23.231 44.6348 23.3122 44.383 23.4754 44.2132C23.6292 44.0509 23.8326 43.9688 24.0853 43.9688C24.3371 43.9688 24.5396 44.0508 24.6859 44.2132C24.8165 44.3922 24.8893 44.6357 24.8893 44.9612H24.8903V44.9612ZM25.989 46.2306H26.3947V44.0342H26.9888V43.6928H26.3947V43.301C26.3947 42.9448 26.5326 42.7657 26.8181 42.7657C26.9142 42.7657 27.0121 42.7899 27.0849 42.831V42.4645C27.0121 42.4319 26.9142 42.4244 26.7919 42.4244C26.5728 42.4244 26.3937 42.4898 26.2472 42.6277C26.0765 42.79 25.9861 43.0008 25.9861 43.2863V43.7023H25.557V44.0436H25.9861V46.2318L25.989 46.2306V46.2306ZM27.6556 45.5385C27.6556 46.0348 27.8749 46.2875 28.3225 46.2875C28.4848 46.2875 28.607 46.2614 28.7049 46.2036V45.8548C28.6303 45.9108 28.5417 45.9369 28.4438 45.9369C28.3058 45.9369 28.2088 45.9042 28.1519 45.8305C28.094 45.7578 28.0614 45.6346 28.0614 45.4648V44.0332H28.7049V43.6918H28.0614V42.9439C27.9215 42.9923 27.7844 43.0334 27.6547 43.0744V43.6918H27.2164V44.0332H27.6547V45.5376L27.6556 45.5385V45.5385ZM71.3047 50.215C71.1667 50.0845 71.0035 50.0192 70.8011 50.0192C70.596 50.0192 70.4261 50.0845 70.2881 50.2244C70.1501 50.3615 70.0847 50.5321 70.0847 50.7281C70.0847 50.9314 70.1501 51.1012 70.2871 51.2317C70.4252 51.3622 70.5948 51.4276 70.8001 51.4276C71.0024 51.4276 71.1731 51.3622 71.3131 51.2242C71.4502 51.0843 71.5229 50.923 71.5229 50.7206C71.5155 50.5154 71.4418 50.3456 71.3038 50.2151L71.3047 50.215V50.215ZM71.2395 51.1757C71.1182 51.2969 70.9708 51.3529 70.7917 51.3529C70.6146 51.3529 70.4672 51.2969 70.3441 51.1757C70.2229 51.0526 70.1575 50.8987 70.1575 50.7187C70.1575 50.5414 70.2135 50.3942 70.3366 50.271C70.4578 50.1499 70.6043 50.0938 70.7917 50.0938C70.969 50.0938 71.1164 50.1499 71.2395 50.271C71.3607 50.3942 71.426 50.5414 71.426 50.7187C71.426 50.9071 71.37 51.0526 71.2395 51.1757V51.1757ZM70.8738 50.7607C70.9465 50.7439 71.0044 50.7112 71.0445 50.6712C71.0856 50.6291 71.1005 50.5722 71.1005 50.5071C71.1005 50.4343 71.0772 50.3764 71.0278 50.3364C70.9719 50.2897 70.8814 50.2645 70.7667 50.2645H70.5074V51.1748H70.6381V50.7924H70.7191C70.7752 50.7924 70.8311 50.8483 70.8814 50.9546L70.9784 51.1738H71.1333L71.0121 50.9294C70.9701 50.8231 70.9215 50.7745 70.8722 50.7586L70.8738 50.7607V50.7607ZM70.7843 50.6786H70.6444V50.3709H70.7591C70.8403 50.3709 70.8972 50.3857 70.9298 50.411C70.9624 50.4352 70.9699 50.4669 70.9699 50.5248C70.9699 50.6302 70.9046 50.6787 70.7834 50.6787L70.7843 50.6786ZM48.0933 43.5874H48.2071V42.6761H48.5083V42.5623H47.7921V42.6761H48.0934V43.5874H48.0933V43.5874ZM48.7835 42.9028C48.7835 42.8141 48.7835 42.7414 48.777 42.7004C48.7844 42.7489 48.8012 42.7816 48.8087 42.8058L49.1585 43.5874H49.2145L49.5651 42.7983C49.5745 42.7741 49.582 42.7423 49.5977 42.7004C49.5903 42.7816 49.5903 42.8467 49.5903 42.8963V43.5865H49.7116V42.5623H49.5651L49.248 43.2693C49.2406 43.2946 49.2153 43.3439 49.1995 43.3999H49.1902C49.1836 43.3672 49.1669 43.3346 49.1435 43.2787L48.8264 42.5624H48.6623V43.5884H48.777V42.9038L48.7835 42.9028V42.9028Z" fill="#163B57"/>
</svg>
