<svg width="80" height="80" viewBox="0 0 80 80" fill="none" xmlns="http://www.w3.org/2000/svg">
<circle cx="40" cy="40" r="40" fill="#577B97"/>
<path d="M51.6641 19.1305C51.3598 19.1305 51.157 19.1715 50.9523 19.2222V19.2534H50.9835C51.1258 19.5166 51.3598 19.7214 51.5412 19.9652C51.6836 20.2401 51.8045 20.5229 51.9371 20.7979L51.978 20.7569C52.2218 20.5834 52.3447 20.3103 52.3447 19.893C52.2433 19.7702 52.2218 19.6395 52.1321 19.5264C52.0307 19.3528 51.8064 19.2631 51.6641 19.1305ZM24.0073 53.4392H21.6008C21.5279 49.6088 21.2944 45.7832 20.9007 41.9724H20.8812L17.2149 53.4392H15.376L11.739 41.9724H11.7078C11.4251 45.7888 11.256 49.6128 11.2007 53.4392H9.00684C9.12563 48.6305 9.48164 43.8306 10.0736 39.057H13.0592L16.5324 49.6209H16.5519L20.0563 39.057H22.8996C23.5295 44.2989 23.9059 49.0924 24.017 53.4392H24.0073ZM34.4483 42.8266C33.4732 48.1485 32.1725 52.0195 30.5792 54.426C29.3194 56.2845 27.9485 57.2186 26.4547 57.2186C26.0588 57.2186 25.5713 57.0957 24.9823 56.8519V55.5727C25.2768 55.6136 25.6122 55.6429 25.9886 55.6429C26.6887 55.6429 27.2484 55.4401 27.6755 55.0637C28.1825 54.5956 28.438 54.0691 28.438 53.4899C28.438 53.0843 28.2449 52.2711 27.8393 51.0328L25.2085 42.8266H27.576L29.4657 48.9617C29.8928 50.3639 30.0761 51.3292 29.9942 51.8869C31.0394 49.1236 31.761 46.097 32.1686 42.8266H34.4483ZM66.5026 53.4392H59.6577V39.057H61.9627V51.6724H66.5026V53.4392ZM57.8694 53.7863L55.2289 52.4856C55.4629 52.2925 55.6852 52.08 55.89 51.8362C57.0172 50.5257 57.5769 48.5658 57.5769 45.9858C57.5769 41.2216 55.7086 38.8464 51.9702 38.8464C50.141 38.8464 48.7096 39.4451 47.6838 40.6541C46.5664 41.9744 45.997 43.9245 45.997 46.4948C45.997 49.0241 46.4943 50.8728 47.4908 52.0605C48.4054 53.1174 49.7763 53.6557 51.6153 53.6557C52.2959 53.6557 52.9258 53.5738 53.4952 53.4022L56.9392 55.4128L57.883 53.7883L57.8694 53.7863ZM49.3083 50.555C48.7194 49.6209 48.4346 48.1173 48.4346 46.0443C48.4346 42.419 49.5326 40.6112 51.7362 40.6112C52.8849 40.6112 53.7371 41.0481 54.2753 41.912C54.8545 42.8558 55.149 44.3399 55.149 46.3914C55.149 50.0382 54.0413 51.8772 51.8474 51.8772C50.689 51.8772 49.8465 51.4403 49.2986 50.5764L49.3083 50.555ZM45.0005 49.459C45.0005 50.6778 44.5539 51.6841 43.649 52.4544C42.7559 53.2364 41.5663 53.6323 40.053 53.6323C38.6411 53.6323 37.2896 53.1857 35.9596 52.2906L36.5798 51.0523C37.7167 51.6217 38.7425 51.9064 39.6785 51.9064C40.5425 51.9064 41.223 51.7133 41.7106 51.337C42.1981 50.9508 42.4926 50.4126 42.4926 49.732C42.4926 48.8779 41.8939 48.1466 40.8057 47.5381C39.7995 46.9804 37.7791 45.8317 37.7791 45.8317C36.6812 45.0302 36.1429 44.1761 36.1429 42.7642C36.1429 41.5961 36.5486 40.6619 37.3618 39.9501C38.1847 39.2188 39.23 38.8639 40.5308 38.8639C41.8249 38.8527 43.0935 39.2238 44.1775 39.9306L43.6198 41.169C42.7484 40.7853 41.8085 40.5816 40.8564 40.5703C40.1154 40.5703 39.5459 40.7536 39.1501 41.1085C38.7542 41.4634 38.5104 41.91 38.5104 42.4697C38.5104 43.3239 39.1208 44.0552 40.2363 44.6831C41.2621 45.2409 43.3233 46.4207 43.3233 46.4207C44.4505 47.2124 45.0102 48.0666 45.0102 49.457L45.0005 49.459ZM69.3888 34.2343C67.9964 34.2031 66.92 34.3455 66.0171 34.7316C65.7635 34.833 65.3462 34.833 65.3053 35.1587C65.4476 35.301 65.4671 35.5253 65.59 35.7164C65.8025 36.0616 66.1594 36.5296 66.4948 36.7734C66.8615 37.0581 67.2261 37.3428 67.6025 37.5866C68.2831 38.0039 69.0456 38.2477 69.7145 38.6631C70.0909 38.9068 70.477 39.2208 70.8514 39.4763C71.0445 39.6089 71.1654 39.8429 71.4092 39.9228V39.8721C71.2863 39.72 71.2571 39.4958 71.1342 39.3144C70.9606 39.1408 70.789 38.9887 70.6155 38.8171C70.1069 38.1419 69.4971 37.5492 68.8077 37.06C68.25 36.6837 67.0311 36.1552 66.8069 35.5155L66.7757 35.4746C67.152 35.4434 67.5986 35.301 67.9633 35.1996C68.5522 35.0475 69.1002 35.0768 69.7106 34.9246C69.9906 34.852 70.2683 34.7707 70.5433 34.6809V34.5288C70.2293 34.2148 69.9953 33.7877 69.6697 33.4932C68.7722 32.708 67.8144 31.9946 66.8049 31.3598C66.2569 31.0049 65.5666 30.7806 64.9874 30.4861C64.7846 30.3847 64.4296 30.334 64.3165 30.1605C64.0026 29.7743 63.8193 29.2771 63.595 28.8188C63.0849 27.8273 62.6107 26.8178 62.1733 25.7922C61.8594 25.1116 61.6761 24.4407 61.2899 23.8108C59.5017 20.8544 57.5515 19.0681 54.5659 17.311C53.9262 16.9444 53.154 16.7923 52.3408 16.5992C51.9039 16.5797 51.4769 16.5485 51.04 16.529C50.7553 16.4062 50.4823 16.0825 50.2385 15.9186C49.2439 15.2887 46.6834 13.9373 45.9619 15.7256C45.4938 16.8625 46.6522 17.9702 47.0598 18.5396C47.3543 18.9452 47.7306 19.3938 47.9432 19.8404C48.0661 20.1446 48.0953 20.4605 48.2182 20.7745C48.4931 21.537 48.7564 22.3892 49.123 23.101C49.3161 23.4676 49.5189 23.8518 49.7627 24.1775C49.905 24.3705 50.1488 24.4524 50.1995 24.7664C49.9558 25.1213 49.9362 25.6401 49.8036 26.0671C49.1737 28.0368 49.4175 30.4647 50.3009 31.9175C50.5856 32.3544 51.2448 33.3099 52.1301 32.9433C52.9122 32.6293 52.7405 31.6426 52.9629 30.7689C53.0136 30.5563 52.9824 30.4237 53.0857 30.2814V30.3223C53.3392 30.8099 53.583 31.2779 53.8073 31.7654C54.3358 32.6196 55.2796 33.503 56.0616 34.0919C56.4789 34.4059 56.8027 34.9461 57.3214 35.1372V35.0865H57.2805C57.1693 34.9344 57.0269 34.8622 56.8846 34.7413C56.5552 34.4151 56.2496 34.0658 55.97 33.6961C55.2484 32.721 54.599 31.6445 54.0296 30.5368C53.7553 29.9895 53.5048 29.4306 53.2788 28.8617C53.1774 28.6589 53.1774 28.3429 53.0038 28.2415C52.7405 28.6179 52.3544 28.9416 52.1711 29.4194C51.8357 30.1605 51.8045 31.0848 51.6738 32.0404C51.6134 32.0599 51.6426 32.0404 51.6134 32.0814C51.0556 31.939 50.8626 31.3696 50.6578 30.882C50.1293 29.6437 50.0474 27.6623 50.4959 26.2407C50.6188 25.8741 51.1356 24.7274 50.9328 24.3822C50.8216 24.0468 50.4764 23.8537 50.2931 23.5905C50.0591 23.2648 49.8251 22.8494 49.6632 22.4828C49.2459 21.5077 49.0431 20.4313 48.5868 19.4562C48.3839 19.0096 48.0173 18.5416 47.7228 18.1262C47.3874 17.6582 47.0227 17.3247 46.7673 16.7747C46.6756 16.5817 46.5547 16.2677 46.6971 16.063C46.7283 15.9206 46.7985 15.8699 46.9408 15.8289C47.1651 15.6359 47.8145 15.8796 48.0388 15.9908C48.6784 16.2443 49.2166 16.4881 49.7549 16.8547C49.9987 17.0283 50.2619 17.352 50.5778 17.4436H50.9445C51.5022 17.5665 52.1223 17.4748 52.6411 17.6367C53.5654 17.9312 54.3982 18.3583 55.149 18.8243C57.445 20.2982 59.3122 22.3511 60.5625 24.7761C60.7751 25.172 60.8667 25.5387 61.0598 25.954C61.4147 26.8179 61.873 27.6799 62.2377 28.5029C62.6024 29.3258 62.9495 30.1585 63.476 30.8391C63.7393 31.2057 64.7768 31.3969 65.2526 31.5802C65.5978 31.742 66.136 31.8844 66.4402 32.0677C67.0389 32.4343 67.6279 32.8497 68.1876 33.2553C68.4723 33.4484 69.3362 33.8852 69.3869 34.2304L69.3888 34.2343Z" fill="#163B57"/>
</svg>
