<svg width="80" height="80" viewBox="0 0 80 80" fill="none" xmlns="http://www.w3.org/2000/svg">
<circle cx="40" cy="40" r="40" fill="#577B97"/>
<path d="M70 33.1025H63.83V52.015H60.2675V33.1025H54.1125V30.0025H70V33.1025ZM52.87 52.015H40.8175V30.0025H52.3925V33.1025H44.38V39.3375H51.7625V42.4225H44.38V48.9325H52.87V52.015ZM36.1 52.015H32.205L21.95 35.835C21.6935 35.4323 21.4774 35.0052 21.305 34.56H21.215C21.295 35.0325 21.335 36.04 21.335 37.585V52.015H17.8925V30.0025H22.04L31.9525 45.8025C32.37 46.455 32.64 46.9075 32.76 47.1525H32.82C32.72 46.57 32.67 45.58 32.67 44.19V30H36.1V52.015ZM14.3425 50.2825C14.3425 50.5549 14.2863 50.8246 14.1771 51.0762C14.0679 51.3278 13.9078 51.5563 13.706 51.7488C13.5043 51.9413 13.2648 52.0939 13.0012 52.1979C12.7376 52.3019 12.4552 52.3553 12.17 52.355C11.8848 52.355 11.6024 52.3013 11.339 52.197C11.0755 52.0927 10.8362 51.9398 10.6347 51.7471C10.4331 51.5544 10.2733 51.3256 10.1644 51.0739C10.0555 50.8221 9.99966 50.5524 10 50.28C10.0007 49.7308 10.2296 49.2043 10.6365 48.8161C11.0434 48.428 11.5949 48.21 12.17 48.21C12.4552 48.2097 12.7376 48.2631 13.0012 48.3671C13.2648 48.4711 13.5043 48.6237 13.706 48.8162C13.9078 49.0087 14.0679 49.2372 14.1771 49.4888C14.2863 49.7404 14.3425 50.0101 14.3425 50.2825V50.2825Z" fill="#163B57"/>
</svg>
