<svg width="78" height="80" viewBox="0 0 78 80" fill="none" xmlns="http://www.w3.org/2000/svg">
<path d="M55.7681 0C52.6569 0.0236737 49.5636 0.474582 46.5751 1.34008L46.3676 1.40759C44.4873 1.08183 42.5851 0.898792 40.6772 0.860053C36.7445 0.792549 33.3693 1.74261 30.6491 3.33271C27.9664 2.41015 22.4061 0.792549 16.5457 1.12007C12.473 1.34008 8.01768 2.57766 4.70748 6.06788C1.42728 9.54559 -0.315331 14.9359 0.047191 22.2814C0.149697 24.299 0.724733 27.5917 1.68729 31.8745C2.63735 36.1472 3.97993 41.1475 5.66004 45.7178C7.34014 50.2756 9.17276 54.3759 12.0404 57.161C13.4705 58.5536 15.4506 59.7412 17.7808 59.6387C19.4109 59.5712 20.881 58.8561 22.1586 57.8011C22.7811 58.6211 23.4486 58.9712 24.0462 59.2987C24.8162 59.7162 25.5438 60.0012 26.3138 60.1862C27.6939 60.5363 30.0515 60.9938 32.8117 60.5238C33.8168 60.3429 34.7964 60.0415 35.7294 59.6262L35.8469 62.8939C35.9894 66.3441 36.0844 69.5343 37.1095 72.3345C37.2795 72.792 37.737 75.1347 39.5321 77.2173C41.3422 79.2999 44.855 80.59 48.8802 79.7299C51.7079 79.1299 55.3131 78.0373 57.7108 74.6271C60.0809 71.2669 61.1485 66.4366 61.3585 58.5961C61.4085 58.1661 61.476 57.8161 61.5385 57.4761L62.0985 57.5286H62.166C65.1862 57.6586 68.4689 57.2285 71.2166 55.951C73.6368 54.8309 75.4744 53.6983 76.8144 51.6807C77.142 51.1832 77.517 50.5731 77.612 49.5306C77.7145 48.503 77.1145 46.8729 76.1244 46.1204C74.1468 44.6103 72.8967 45.1828 71.5541 45.4703C70.2393 45.7536 68.9009 45.9143 67.5564 45.9503C71.4091 39.4674 74.1693 32.567 75.7469 26.4691C76.6844 22.8614 77.207 19.5412 77.2445 16.6385C77.297 13.7359 77.052 11.1707 75.3169 8.94555C69.874 2.00512 62.2285 0.0750046 56.3182 0.0125008H55.7706L55.7681 0ZM55.6106 2.13763C61.1985 2.08513 68.3439 3.64773 73.4742 10.2081C74.6343 11.6807 74.9743 13.8284 74.9343 16.486C74.8943 19.1437 74.4018 22.3064 73.5017 25.7841C71.7716 32.532 68.4739 40.3675 63.8536 47.4154C64.0126 47.5352 64.1877 47.632 64.3737 47.703C65.3362 48.1055 67.5364 48.443 71.9366 47.5454C73.0442 47.3079 73.8543 47.1554 74.6993 47.793C74.9044 47.9659 75.0664 48.1843 75.1723 48.4309C75.2782 48.6774 75.3251 48.9452 75.3094 49.2131C75.2638 49.6191 75.1111 50.0056 74.8668 50.3331C74.0193 51.6057 72.3442 52.8208 70.194 53.8233C68.2939 54.7059 65.5563 55.1634 63.1511 55.1909C61.9285 55.2034 60.8085 55.1109 59.8534 54.8109L59.8034 54.8009C59.4359 58.3286 58.5933 65.309 58.0433 68.4842C57.6033 71.0469 56.8332 73.0945 55.3631 74.6171C53.8905 76.1547 51.8204 77.0648 49.0202 77.6648C45.5575 78.4074 43.0424 77.6123 41.4173 76.2447C39.7922 74.8771 39.0471 73.0545 38.6046 71.947C38.2946 71.1794 38.1371 70.1894 37.982 68.8593C37.8119 67.2712 37.6984 65.6776 37.642 64.0815C37.5395 61.2813 37.4995 58.4811 37.5395 55.6685C36.095 56.9929 34.3004 57.8746 32.3692 58.2086C30.0666 58.5986 28.0214 58.2086 26.7988 57.9086C26.1957 57.7547 25.6138 57.5272 25.0662 57.231C24.4937 56.931 23.9587 56.5935 23.5961 55.9135C23.3873 55.524 23.3226 55.0733 23.4136 54.6409C23.5217 54.2016 23.7745 53.8115 24.1312 53.5333C24.7937 52.9958 25.6688 52.7008 26.9814 52.4257C29.379 51.9282 30.2241 51.5932 30.7316 51.1857C31.1616 50.8482 31.6592 50.1456 32.5142 49.1155C32.5142 49.078 32.5142 49.0255 32.5017 48.9855C30.9524 48.9384 29.4358 48.5282 28.0739 47.788C27.5814 48.308 25.0137 51.0182 21.9035 54.7684C20.601 56.3285 19.1559 57.2285 17.6208 57.2961C16.0982 57.3586 14.7131 56.5935 13.543 55.4584C11.2004 53.1783 9.32277 49.2581 7.69517 44.8303C6.06756 40.4025 4.75248 35.4697 3.80242 31.2769C2.86487 27.0692 2.30483 23.684 2.22483 22.0564C1.8748 15.1159 3.50241 10.4431 6.28758 7.48546C9.07275 4.52778 12.8905 3.42271 16.6157 3.2027C23.2961 2.82518 29.649 5.15532 30.9266 5.65035C33.3993 3.97025 36.5895 2.93018 40.5747 2.99269C42.4633 3.02046 44.3424 3.26542 46.1751 3.72273L46.2426 3.68273C47.0488 3.40348 47.8702 3.16977 48.7027 2.98268C50.9655 2.45166 53.2791 2.16748 55.6031 2.13513L55.6106 2.13763ZM56.1182 4.36277H55.6256C53.7255 4.38527 51.8079 4.61029 49.9478 5.01281C54.1005 6.85042 57.2382 9.6731 59.4509 12.5133C60.9885 14.4659 62.251 16.6135 63.2136 18.9062C63.5936 19.7937 63.8411 20.5338 63.9712 21.1063C64.0487 21.3938 64.0887 21.6388 64.1137 21.8864C64.1137 22.0164 64.1262 22.1489 64.0612 22.3689C64.0612 22.3814 64.0487 22.4089 64.0487 22.4214C64.1562 25.3391 63.4261 27.3142 63.3311 30.1019C63.2686 32.122 63.7886 34.4921 63.9187 37.0823C64.0362 39.5149 63.7386 42.1851 62.161 44.8153C62.291 44.9728 62.4086 45.1278 62.5386 45.2978C66.7188 38.7074 69.739 31.4294 71.3416 25.2166C72.2017 21.8689 72.6542 18.8362 72.6942 16.4435C72.7342 14.0459 72.2917 12.3008 71.7166 11.5732C67.2364 5.85536 61.1835 4.39527 56.1157 4.36027L56.1182 4.36277ZM40.1397 5.22032C36.2094 5.23282 33.3818 6.4204 31.2366 8.20301C29.019 10.0531 27.5364 12.5658 26.5738 15.1559C25.4138 18.2161 25.0112 21.1838 24.8537 23.2039L24.9062 23.1764C26.2943 22.3992 27.7849 21.821 29.334 21.4588C31.0016 21.0663 32.8117 20.9488 34.4368 21.5888C36.0794 22.2114 37.4195 23.709 37.9145 25.9616C40.2622 36.8223 37.187 40.86 36.0544 43.9052C35.6244 45.0128 35.2469 46.1329 34.9469 47.2779C35.0894 47.2504 35.2344 47.2104 35.3769 47.1979C36.1844 47.1354 36.807 47.3954 37.1745 47.5504C38.3221 48.0305 39.1021 49.0205 39.5321 50.1531C39.6377 50.4623 39.7155 50.7802 39.7647 51.1032C39.8077 51.2382 39.8305 51.3789 39.8322 51.5207C39.7009 55.6735 39.7134 59.8296 39.8697 63.9815C39.9497 65.7791 40.0672 67.3542 40.2097 68.6043C40.3522 69.8418 40.5472 70.7919 40.6797 71.1169C41.1072 72.1845 41.7323 73.5771 42.8673 74.5271C43.9874 75.4797 45.6 76.1047 48.5577 75.4797C51.1204 74.9196 52.698 74.1621 53.7505 73.0695C54.8081 71.962 55.4306 70.4394 55.8331 68.1092C56.4457 64.6065 57.6558 54.4484 57.8008 52.5483C57.7383 51.1007 57.9433 49.9956 58.4133 49.148C58.8808 48.288 59.6109 47.7555 60.2509 47.4679C60.5609 47.3254 60.861 47.2354 61.1085 47.1554C60.8465 46.79 60.5773 46.43 60.3009 46.0754C59.3884 44.9681 58.6383 43.7365 58.0733 42.4176C57.8135 41.8646 57.5264 41.3247 57.2132 40.8C56.7732 40.0075 56.2132 39.0024 55.6256 37.8698C54.4531 35.6297 53.178 32.897 52.5129 30.2394C51.8504 27.5817 51.7604 24.8365 53.453 22.9089C54.9506 21.1888 57.5933 20.4763 61.536 20.8788C61.4185 20.5263 61.356 20.2263 61.1585 19.7712C60.2617 17.665 59.0925 15.6855 57.6808 13.8834C54.3331 9.60059 48.9027 5.35283 40.5322 5.21032L40.1397 5.22032ZM18.0058 5.39033C17.5846 5.38989 17.1635 5.40323 16.7432 5.43034C13.3705 5.62785 10.1928 6.60041 7.91268 9.01056C5.63504 11.4332 4.13994 15.3785 4.46246 21.9289C4.52997 23.1789 5.0625 26.6417 5.98506 30.7694C6.91262 34.8997 8.2252 39.7575 9.8028 44.0527C11.3754 48.3355 13.2805 52.0732 15.1031 53.8433C16.0132 54.7159 16.8057 55.0809 17.5233 55.0559C18.2408 55.0159 19.1134 54.5984 20.1809 53.3233C22.1183 50.9857 24.1294 48.7103 26.2113 46.5004C24.7348 45.2151 23.6055 43.5789 22.9274 41.7425C22.2493 39.9061 22.0442 37.9287 22.3311 35.9922C22.6686 33.5321 22.7211 31.2244 22.6686 29.4018C22.6311 27.6317 22.5111 26.4616 22.5111 25.7191V25.6391L22.4986 25.6166C22.4986 21.7739 23.1786 17.9736 24.4787 14.3659C25.4163 11.8757 26.7988 9.36558 28.879 7.31795C26.8364 6.64041 23.2011 5.62785 19.2709 5.43034C18.8506 5.40331 18.4295 5.38997 18.0083 5.39033H18.0058ZM59.3334 22.9939C57.0707 23.0339 55.8056 23.6215 55.1306 24.374C54.1905 25.4566 54.1005 27.3567 54.6881 29.7018C55.2706 32.0445 56.4857 34.6621 57.6183 36.8398C58.1783 37.9324 58.7258 38.9099 59.1659 39.7025C59.6234 40.51 59.9484 41.07 60.1434 41.5651C60.3259 42.0076 60.5359 42.3976 60.7435 42.7627C61.616 40.9125 61.7735 39.1024 61.681 37.2023C61.5635 34.8597 61.0185 32.462 61.1085 30.0419C61.201 27.2017 61.761 25.3516 61.801 23.1639C60.9845 23.056 60.162 22.9992 59.3384 22.9939H59.3334ZM31.8867 23.3889C31.1966 23.3889 30.5066 23.479 29.829 23.6365C28.4862 23.9594 27.1935 24.4632 25.9863 25.1341C25.58 25.3539 25.1928 25.6073 24.8287 25.8916L24.7487 25.9541C24.7762 26.4516 24.8662 27.6217 24.9062 29.3668C24.9462 31.2669 24.9062 33.6871 24.5437 36.3073C23.7362 42.0101 27.8764 46.7254 32.7342 46.7379C33.0217 45.5653 33.4868 44.3777 33.9568 43.1302C35.3094 39.4824 37.967 36.8273 35.7269 26.4366C35.3644 24.744 34.6343 24.054 33.6293 23.664C33.07 23.4671 32.4793 23.3747 31.8867 23.3914V23.3889ZM58.2808 24.064H58.4508C58.6583 24.0765 58.8683 24.0915 59.0483 24.1415C59.2109 24.1733 59.3661 24.2352 59.5059 24.324C59.5708 24.363 59.6266 24.4156 59.6693 24.4782C59.7121 24.5407 59.7407 24.6118 59.7534 24.6865V24.714C59.7527 24.8739 59.7123 25.0311 59.6359 25.1716C59.5375 25.3511 59.4156 25.5168 59.2734 25.6641C58.9372 26.04 58.4814 26.2881 57.9833 26.3666C57.5013 26.4284 57.0136 26.3081 56.6157 26.0291C56.4581 25.9148 56.3139 25.7831 56.1857 25.6366C56.0732 25.5182 55.9998 25.3681 55.9757 25.2066C55.961 25.0525 56.0077 24.8989 56.1057 24.779C56.2214 24.6607 56.3536 24.5597 56.4982 24.479C56.8207 24.2965 57.2507 24.1665 57.7483 24.099C57.9283 24.0765 58.1108 24.0615 58.2808 24.049V24.064ZM32.2092 24.624C32.3792 24.624 32.5767 24.6365 32.7592 24.6615C33.2792 24.7415 33.7218 24.8715 34.0718 25.0791C34.2434 25.1627 34.3945 25.283 34.5143 25.4316C34.6442 25.5883 34.7094 25.7885 34.6968 25.9916C34.6613 26.1841 34.5749 26.3636 34.4468 26.5116C34.3097 26.6786 34.1478 26.8237 33.9668 26.9417C33.5336 27.2529 32.9982 27.3879 32.4692 27.3192C31.9333 27.233 31.4424 26.9678 31.0766 26.5666C30.923 26.4016 30.7911 26.2176 30.6841 26.0191C30.5674 25.8421 30.5169 25.6296 30.5416 25.4191C30.5941 25.0691 30.8941 24.8715 31.1816 24.769C31.5091 24.6615 31.8592 24.6265 32.2092 24.639V24.624ZM62.4086 49.103H62.3961C61.916 49.2856 61.5135 49.3531 61.1735 49.5106C60.8293 49.6404 60.5465 49.8947 60.3809 50.2231C60.1584 50.6031 59.9909 51.2807 60.0409 52.4357C60.1913 52.5439 60.3598 52.6244 60.5384 52.6733C61.0985 52.8433 62.061 52.9608 63.1286 52.9458C65.2512 52.9183 67.8689 52.4258 69.2615 51.7732C70.3996 51.2458 71.4563 50.5579 72.3992 49.7306C67.7514 50.6806 65.1362 50.4331 63.5186 49.7706C63.1212 49.5986 62.7487 49.3741 62.4111 49.103H62.4086ZM35.6369 49.4156H35.5694C35.3894 49.4281 35.1394 49.4956 34.6318 50.0431C33.4718 51.3432 33.0692 52.1632 32.1192 52.9208C31.1566 53.6883 29.919 54.0934 27.4314 54.6009C26.9008 54.6958 26.3842 54.8571 25.8938 55.0809C25.9838 55.1609 25.9838 55.1884 26.1263 55.2509C26.4938 55.4609 26.9589 55.6309 27.3389 55.7335C28.4064 55.9935 30.1491 56.306 31.9867 55.9935C33.8093 55.681 35.7094 54.8059 37.3395 52.5308C37.627 52.1407 37.6495 51.5532 37.417 50.9282C37.1845 50.3181 36.6745 49.7706 36.3244 49.6281C36.1054 49.5261 35.8731 49.4554 35.6344 49.4181L35.6369 49.4156Z" fill="#577B97"/>
</svg>
