<svg width="80" height="80" viewBox="0 0 80 80" fill="none" xmlns="http://www.w3.org/2000/svg">
<path fill-rule="evenodd" clip-rule="evenodd" d="M40 0C47.9112 0 55.6448 2.34596 62.2228 6.74121C68.8008 11.1365 73.9277 17.3836 76.9552 24.6927C79.9827 32.0017 80.7748 40.0444 79.2314 47.8036C77.688 55.5628 73.8784 62.6902 68.2843 68.2843C62.6902 73.8784 55.5628 77.688 47.8036 79.2314C40.0444 80.7748 32.0017 79.9827 24.6927 76.9552C17.3836 73.9277 11.1365 68.8008 6.74121 62.2228C2.34596 55.6448 0 47.9112 0 40C0 29.3913 4.21427 19.2172 11.7157 11.7157C19.2172 4.21427 29.3913 0 40 0Z" fill="#577B97"/>
<path d="M65.0916 17.1204C63.2802 10.0175 51.5002 7.69179 40.3516 11.6404C33.3696 13.9865 26.9189 17.6866 21.3688 22.5289C15.2288 28.2718 14.2488 33.2718 14.6516 35.3604C16.0802 42.7318 26.1745 47.5489 30.3259 51.1232V51.1432C29.1031 51.7461 20.1431 56.2861 18.0402 60.9146C15.8288 65.8061 18.3916 69.3146 20.0916 69.7861C22.644 70.4005 25.3246 70.2006 27.7576 69.2142C30.1905 68.2278 32.2536 66.5045 33.6573 64.2861C34.8175 62.4887 35.5433 60.4459 35.7774 58.3195C36.0115 56.1931 35.7473 54.0413 35.0059 52.0346C37.0055 51.5265 39.0841 51.4072 41.1288 51.6832C48.1459 52.5032 49.523 56.8832 49.2602 58.7175C49.1366 59.3704 48.8738 59.9891 48.4897 60.5314C48.1057 61.0737 47.6093 61.527 47.0345 61.8604C46.5431 62.1661 46.3916 62.2689 46.4345 62.4975C46.4945 62.8261 46.7202 62.8146 47.1402 62.7432C48.1947 62.4111 49.1239 61.7673 49.8053 60.8967C50.4866 60.0261 50.8883 58.9695 50.9573 57.8661C51.1259 53.5804 47.0088 48.7632 39.7173 48.8861C37.5996 48.8256 35.4864 49.1152 33.4631 49.7432C33.3618 49.6275 33.2589 49.5132 33.1545 49.4004C28.6459 44.5918 20.3145 41.1889 20.6659 34.7232C20.7945 32.3718 21.6116 26.1832 36.6659 18.6746C49.0088 12.5232 58.8888 14.2175 60.5973 17.9689C63.0373 23.3289 55.3173 33.2861 42.5002 34.7232C41.0836 35.0108 39.6203 34.9757 38.2191 34.6206C36.8179 34.2655 35.5146 33.5994 34.4059 32.6718C33.7316 31.9289 33.6316 31.8975 33.3802 32.0346C32.9716 32.2604 33.2316 32.9175 33.3802 33.3061C33.871 34.1906 34.5334 34.9682 35.3288 35.5932C36.1241 36.2183 37.0362 36.6782 38.0116 36.9461C43.051 38.0411 48.3072 37.5212 53.0345 35.4604C60.8088 32.4632 66.8716 24.1061 65.0916 17.1204V17.1204ZM32.0516 53.3232C32.6191 55.2795 32.5903 57.3606 31.9688 59.3004C31.9021 59.5023 31.8288 59.7023 31.7488 59.9004C31.6688 60.0984 31.5821 60.2889 31.4888 60.4718C31.0079 61.4556 30.3851 62.3634 29.6402 63.1661C27.3173 65.7004 24.0688 66.6604 22.6773 65.8518C21.1745 64.9804 21.9259 61.4061 24.6202 58.5575C26.6904 56.5103 29.0773 54.8104 31.6888 53.5232L32.0516 53.3232Z" fill="#163B57"/>
</svg>
