<svg width="773" height="650" viewBox="0 0 773 650" fill="none" xmlns="http://www.w3.org/2000/svg">
<path d="M696.55 338.182C696.651 418.591 664.468 495.907 606.765 553.877C603.287 557.394 599.714 560.827 596.048 564.174C590.462 569.306 584.688 574.238 578.726 578.972C522.959 623.343 453.34 648.277 381.1 649.751C378.693 649.803 376.277 649.83 373.852 649.83C316.239 649.83 243.775 620.111 178.015 578.972C172.574 575.569 167.182 572.086 161.838 568.525C159.34 566.876 156.854 565.204 154.381 563.508C129.018 546.212 104.943 527.219 82.335 506.668C67.5324 493.251 53.6515 478.917 40.7806 463.757C-9.7478 403.566 -20.8925 349.33 51.1442 338.182C59.6731 336.866 67.9506 335.46 75.9769 333.963C87.6031 331.805 98.7297 329.474 109.357 326.972C123.671 323.612 137.12 319.969 149.703 316.042C153.936 314.726 158.072 313.384 162.11 312.016C221.822 291.762 261.787 265.351 288.99 236.694C293.604 231.843 297.858 226.934 301.751 221.966C307.708 214.405 313.12 206.456 317.946 198.177C324.608 186.674 330.204 174.625 334.668 162.17L334.913 161.486C356.558 101.189 349.973 45.2613 373.852 26.5426C475.926 -53.4811 603.005 60.4801 662.653 194.871C665.659 201.642 668.487 208.455 671.136 215.308C672.326 218.37 673.474 221.437 674.579 224.51C677.485 232.518 680.122 240.547 682.49 248.597C683.398 251.667 684.264 254.734 685.088 257.798C685.969 261.105 686.813 264.403 687.595 267.702C693.398 291.85 696.55 315.665 696.55 338.182Z" fill="#1D415F"/>
<path d="M381.1 649.751C378.693 649.803 376.277 649.83 373.852 649.83C316.239 649.83 243.775 620.111 178.015 578.972C172.574 575.569 167.182 572.086 161.838 568.525L166.525 540.982L308.409 522.79L379.619 575.376L381.1 649.751Z" fill="#2F2E41"/>
<path d="M387.93 157.933H367.712C367.085 157.933 366.485 158.174 366.042 158.601C365.599 159.029 365.35 159.609 365.35 160.214V179.748C365.35 180.047 365.412 180.343 365.531 180.619C365.649 180.895 365.824 181.146 366.043 181.357C366.262 181.568 366.523 181.735 366.809 181.849C367.095 181.963 367.402 182.021 367.712 182.02H387.93C388.555 182.02 389.154 181.781 389.597 181.355C390.04 180.93 390.29 180.352 390.292 179.748V160.214C390.29 159.609 390.04 159.03 389.598 158.603C389.155 158.176 388.556 157.935 387.93 157.933V157.933Z" fill="#092E4A"/>
<path d="M387.93 191.222H367.712C367.085 191.222 366.485 191.462 366.042 191.89C365.599 192.317 365.35 192.897 365.35 193.502V213.037C365.35 213.336 365.412 213.632 365.531 213.908C365.649 214.184 365.824 214.434 366.043 214.646C366.262 214.857 366.523 215.024 366.809 215.137C367.095 215.251 367.402 215.309 367.712 215.308H387.93C388.555 215.309 389.154 215.07 389.597 214.644C390.04 214.218 390.29 213.64 390.292 213.037V193.502C390.29 192.898 390.041 192.319 389.598 191.891C389.156 191.464 388.556 191.223 387.93 191.222Z" fill="#092E4A"/>
<path d="M387.93 224.51H367.712C367.085 224.51 366.485 224.751 366.042 225.178C365.599 225.606 365.35 226.186 365.35 226.791V246.316C365.349 246.616 365.41 246.913 365.529 247.19C365.647 247.467 365.821 247.718 366.04 247.93C366.26 248.142 366.52 248.31 366.807 248.425C367.094 248.539 367.401 248.598 367.712 248.597H387.93C388.556 248.597 389.157 248.356 389.6 247.929C390.043 247.501 390.291 246.921 390.292 246.316V226.791C390.29 226.186 390.041 225.607 389.598 225.18C389.156 224.753 388.556 224.512 387.93 224.51V224.51Z" fill="#E6E6E6"/>
<path d="M390.255 259.675C390.155 259.15 389.867 258.675 389.443 258.333C389.018 257.99 388.483 257.801 387.93 257.798H367.712C367.085 257.799 366.485 258.039 366.042 258.467C365.599 258.894 365.35 259.474 365.35 260.079V279.605C365.349 279.904 365.41 280.201 365.529 280.478C365.647 280.755 365.821 281.007 366.04 281.219C366.26 281.43 366.52 281.598 366.807 281.713C367.094 281.827 367.401 281.886 367.712 281.885H387.93C388.556 281.885 389.157 281.645 389.6 281.217C390.043 280.789 390.291 280.209 390.292 279.605V260.079C390.294 259.944 390.281 259.808 390.255 259.675V259.675Z" fill="#E6E6E6"/>
<path d="M388.848 291.262C388.557 291.146 388.245 291.086 387.931 291.087H367.712C367.402 291.086 367.094 291.145 366.808 291.259C366.521 291.374 366.26 291.542 366.041 291.753C365.821 291.965 365.648 292.217 365.529 292.494C365.411 292.771 365.35 293.068 365.351 293.367V312.893C365.349 313.193 365.409 313.49 365.527 313.767C365.646 314.045 365.82 314.297 366.039 314.509C366.259 314.721 366.519 314.889 366.807 315.003C367.094 315.117 367.401 315.175 367.712 315.174H387.931C388.557 315.174 389.157 314.933 389.6 314.506C390.043 314.078 390.292 313.498 390.292 312.893V293.367C390.291 292.919 390.154 292.48 389.897 292.106C389.64 291.732 389.276 291.438 388.848 291.262Z" fill="#E6E6E6"/>
<path d="M430.402 157.933H410.183C409.557 157.933 408.957 158.174 408.514 158.601C408.071 159.029 407.822 159.609 407.822 160.214V179.748C407.822 180.047 407.883 180.343 408.002 180.619C408.121 180.895 408.295 181.146 408.515 181.357C408.734 181.568 408.994 181.735 409.281 181.849C409.567 181.963 409.874 182.021 410.183 182.02H430.402C431.027 182.02 431.626 181.781 432.069 181.355C432.511 180.93 432.761 180.352 432.763 179.748V160.214C432.762 159.609 432.512 159.03 432.07 158.603C431.627 158.176 431.028 157.935 430.402 157.933V157.933Z" fill="#092E4A"/>
<path d="M430.402 191.222H410.183C409.557 191.222 408.956 191.462 408.514 191.89C408.071 192.317 407.822 192.897 407.822 193.502V213.037C407.822 213.336 407.883 213.632 408.002 213.908C408.121 214.184 408.295 214.434 408.515 214.646C408.734 214.857 408.994 215.024 409.281 215.137C409.567 215.251 409.874 215.309 410.183 215.308H430.402C431.027 215.309 431.626 215.07 432.069 214.644C432.512 214.218 432.761 213.64 432.763 213.037V193.502C432.762 192.898 432.512 192.319 432.07 191.891C431.627 191.464 431.028 191.223 430.402 191.222Z" fill="#BBDFFA"/>
<path d="M430.402 224.51H410.183C409.557 224.51 408.956 224.751 408.514 225.178C408.071 225.606 407.822 226.186 407.822 226.791V246.316C407.821 246.616 407.882 246.913 408 247.19C408.119 247.467 408.293 247.718 408.512 247.93C408.731 248.142 408.992 248.31 409.279 248.425C409.566 248.539 409.873 248.598 410.183 248.597H430.402C431.028 248.597 431.629 248.356 432.071 247.929C432.514 247.501 432.763 246.921 432.763 246.316V226.791C432.762 226.186 432.512 225.607 432.07 225.18C431.627 224.753 431.028 224.512 430.402 224.51V224.51Z" fill="#BBDFFA"/>
<path d="M430.402 257.798H410.183C409.688 257.799 409.206 257.95 408.805 258.23C408.403 258.51 408.104 258.906 407.949 259.36C407.865 259.591 407.822 259.834 407.822 260.079V279.605C407.821 279.904 407.882 280.201 408 280.478C408.119 280.755 408.293 281.007 408.512 281.219C408.731 281.43 408.992 281.598 409.279 281.713C409.566 281.827 409.873 281.886 410.183 281.885H430.402C431.028 281.885 431.629 281.645 432.071 281.217C432.514 280.789 432.763 280.209 432.763 279.605V260.079C432.762 259.475 432.512 258.896 432.07 258.468C431.627 258.041 431.028 257.8 430.402 257.798V257.798Z" fill="#BBDFFA"/>
<path d="M430.402 291.087H410.183C409.873 291.086 409.566 291.145 409.279 291.259C408.992 291.374 408.731 291.542 408.512 291.753C408.293 291.965 408.119 292.217 408 292.494C407.882 292.771 407.821 293.068 407.822 293.367V312.893C407.821 313.193 407.882 313.49 408 313.767C408.119 314.044 408.293 314.295 408.512 314.507C408.731 314.719 408.992 314.887 409.279 315.001C409.566 315.116 409.873 315.174 410.183 315.174H430.402C431.028 315.174 431.629 314.933 432.071 314.505C432.514 314.078 432.763 313.498 432.763 312.893V293.367C432.763 292.763 432.514 292.183 432.071 291.755C431.629 291.327 431.028 291.087 430.402 291.087V291.087Z" fill="#E6E6E6"/>
<path d="M472.874 157.933H452.655C452.029 157.933 451.429 158.174 450.986 158.601C450.543 159.029 450.294 159.609 450.294 160.214V179.748C450.294 180.047 450.356 180.343 450.475 180.619C450.593 180.895 450.767 181.146 450.987 181.357C451.206 181.568 451.466 181.735 451.753 181.849C452.039 181.963 452.346 182.021 452.655 182.02H472.874C473.499 182.02 474.098 181.781 474.541 181.355C474.984 180.93 475.233 180.352 475.236 179.748V160.214C475.234 159.609 474.984 159.03 474.542 158.603C474.099 158.176 473.5 157.935 472.874 157.933V157.933Z" fill="#BBDFFA"/>
<path d="M472.874 191.222H452.655C452.029 191.222 451.429 191.462 450.986 191.89C450.543 192.317 450.294 192.897 450.294 193.502V213.037C450.294 213.336 450.356 213.632 450.475 213.908C450.593 214.184 450.767 214.434 450.987 214.646C451.206 214.857 451.466 215.024 451.753 215.137C452.039 215.251 452.346 215.309 452.655 215.308H472.874C473.499 215.309 474.098 215.07 474.541 214.644C474.984 214.218 475.233 213.64 475.236 213.037V193.502C475.234 192.898 474.984 192.319 474.542 191.891C474.099 191.464 473.5 191.223 472.874 191.222Z" fill="#BBDFFA"/>
<path d="M472.874 224.51H452.655C452.029 224.51 451.429 224.751 450.986 225.178C450.543 225.606 450.294 226.186 450.294 226.791V246.316C450.293 246.616 450.354 246.913 450.472 247.19C450.591 247.467 450.765 247.718 450.984 247.93C451.204 248.142 451.464 248.31 451.751 248.425C452.038 248.539 452.345 248.598 452.655 248.597H472.874C473.5 248.597 474.101 248.356 474.544 247.929C474.986 247.501 475.235 246.921 475.236 246.316V226.791C475.234 226.186 474.984 225.607 474.542 225.18C474.099 224.753 473.5 224.512 472.874 224.51V224.51Z" fill="#092E4A"/>
<path d="M472.874 257.798H452.655C452.029 257.799 451.429 258.039 450.986 258.467C450.543 258.894 450.294 259.474 450.294 260.079V279.605C450.293 279.904 450.354 280.201 450.472 280.478C450.591 280.755 450.765 281.007 450.984 281.219C451.204 281.43 451.464 281.598 451.751 281.713C452.038 281.827 452.345 281.886 452.655 281.885H472.874C473.5 281.885 474.101 281.645 474.544 281.217C474.986 280.789 475.235 280.209 475.236 279.605V260.079C475.234 259.475 474.984 258.896 474.542 258.468C474.099 258.041 473.5 257.8 472.874 257.798V257.798Z" fill="#BBDFFA"/>
<path d="M472.874 291.087H452.655C452.345 291.086 452.038 291.145 451.751 291.259C451.464 291.374 451.204 291.542 450.984 291.753C450.765 291.965 450.591 292.217 450.472 292.494C450.354 292.771 450.293 293.068 450.294 293.367V312.893C450.293 313.193 450.354 313.49 450.472 313.767C450.591 314.044 450.765 314.295 450.984 314.507C451.204 314.719 451.464 314.887 451.751 315.001C452.038 315.116 452.345 315.174 452.655 315.174H472.874C473.5 315.174 474.101 314.933 474.544 314.505C474.986 314.078 475.235 313.498 475.236 312.893V293.367C475.235 292.763 474.986 292.183 474.544 291.755C474.101 291.327 473.5 291.087 472.874 291.087V291.087Z" fill="#BBDFFA"/>
<path d="M515.346 157.933H495.127C494.501 157.933 493.9 158.174 493.458 158.601C493.015 159.029 492.766 159.609 492.766 160.214V179.748C492.766 180.047 492.827 180.343 492.946 180.619C493.065 180.895 493.239 181.146 493.459 181.357C493.678 181.568 493.938 181.735 494.224 181.849C494.511 181.963 494.818 182.021 495.127 182.02H515.346C515.971 182.02 516.57 181.781 517.013 181.355C517.455 180.93 517.705 180.352 517.707 179.748V160.214C517.706 159.609 517.456 159.03 517.014 158.603C516.571 158.176 515.972 157.935 515.346 157.933V157.933Z" fill="#BBDFFA"/>
<path d="M515.346 191.222H495.127C494.501 191.222 493.9 191.462 493.458 191.89C493.015 192.317 492.766 192.897 492.766 193.502V213.037C492.766 213.336 492.827 213.632 492.946 213.908C493.065 214.184 493.239 214.434 493.459 214.646C493.678 214.857 493.938 215.024 494.224 215.137C494.511 215.251 494.818 215.309 495.127 215.308H515.346C515.971 215.309 516.57 215.07 517.013 214.644C517.455 214.218 517.705 213.64 517.707 213.037V193.502C517.706 192.898 517.456 192.319 517.014 191.891C516.571 191.464 515.972 191.223 515.346 191.222V191.222Z" fill="#092E4A"/>
<path d="M515.346 224.51H495.127C494.501 224.51 493.9 224.751 493.458 225.178C493.015 225.606 492.766 226.186 492.766 226.791V246.316C492.765 246.616 492.826 246.913 492.944 247.19C493.063 247.467 493.237 247.718 493.456 247.93C493.675 248.142 493.936 248.31 494.223 248.425C494.509 248.539 494.817 248.598 495.127 248.597H515.346C515.972 248.597 516.573 248.356 517.015 247.929C517.458 247.501 517.707 246.921 517.707 246.316V226.791C517.706 226.186 517.456 225.607 517.014 225.18C516.571 224.753 515.972 224.512 515.346 224.51V224.51Z" fill="#092E4A"/>
<path d="M515.346 257.798H495.127C494.501 257.799 493.9 258.039 493.458 258.467C493.015 258.894 492.766 259.474 492.766 260.079V279.605C492.765 279.904 492.826 280.201 492.944 280.478C493.063 280.755 493.237 281.007 493.456 281.219C493.675 281.431 493.936 281.598 494.223 281.713C494.509 281.827 494.817 281.886 495.127 281.885H515.346C515.972 281.885 516.573 281.645 517.015 281.217C517.458 280.789 517.707 280.209 517.707 279.605V260.079C517.706 259.475 517.456 258.896 517.014 258.468C516.571 258.041 515.972 257.8 515.346 257.798V257.798Z" fill="#092E4A"/>
<path d="M515.346 291.087H495.127C494.817 291.086 494.509 291.145 494.223 291.259C493.936 291.374 493.675 291.542 493.456 291.753C493.237 291.965 493.063 292.217 492.944 292.494C492.826 292.771 492.765 293.068 492.766 293.367V312.893C492.765 313.193 492.826 313.49 492.944 313.767C493.063 314.044 493.237 314.295 493.456 314.507C493.675 314.719 493.936 314.887 494.223 315.001C494.509 315.116 494.817 315.174 495.127 315.174H515.346C515.972 315.174 516.573 314.933 517.015 314.505C517.458 314.078 517.707 313.498 517.707 312.893V293.367C517.707 292.763 517.458 292.183 517.015 291.755C516.573 291.327 515.972 291.087 515.346 291.087V291.087Z" fill="#BBDFFA"/>
<path d="M557.818 157.933H537.59C536.965 157.935 536.367 158.177 535.926 158.604C535.485 159.031 535.237 159.61 535.237 160.214V179.748C535.237 180.351 535.485 180.928 535.927 181.355C536.368 181.781 536.966 182.02 537.59 182.02H557.818C558.442 182.02 559.042 181.781 559.484 181.355C559.927 180.93 560.177 180.352 560.179 179.748V160.214C560.177 159.609 559.928 159.03 559.485 158.603C559.043 158.176 558.443 157.935 557.818 157.933Z" fill="#092E4A"/>
<path d="M557.818 191.222H537.59C536.965 191.224 536.366 191.465 535.926 191.892C535.485 192.32 535.237 192.899 535.237 193.502V213.037C535.237 213.639 535.485 214.217 535.927 214.643C536.368 215.069 536.966 215.308 537.59 215.308H557.818C558.442 215.309 559.042 215.07 559.484 214.644C559.927 214.218 560.177 213.64 560.179 213.037V193.502C560.177 192.898 559.928 192.319 559.485 191.891C559.043 191.464 558.443 191.223 557.818 191.222V191.222Z" fill="#092E4A"/>
<path d="M557.818 224.51H537.59C536.965 224.512 536.367 224.753 535.926 225.181C535.485 225.608 535.237 226.187 535.237 226.791V246.316C535.236 246.615 535.297 246.912 535.414 247.188C535.532 247.465 535.705 247.716 535.924 247.928C536.142 248.14 536.402 248.308 536.688 248.423C536.974 248.537 537.28 248.597 537.59 248.597H557.818C558.444 248.597 559.044 248.356 559.487 247.929C559.93 247.501 560.179 246.921 560.179 246.316V226.791C560.177 226.186 559.928 225.607 559.485 225.18C559.043 224.753 558.443 224.512 557.818 224.51V224.51Z" fill="#092E4A"/>
<path d="M557.818 257.798H537.59C536.965 257.8 536.367 258.042 535.926 258.469C535.485 258.897 535.237 259.476 535.237 260.079V279.605C535.236 279.904 535.297 280.2 535.414 280.476C535.532 280.753 535.705 281.004 535.924 281.216C536.142 281.428 536.402 281.596 536.688 281.711C536.974 281.826 537.28 281.885 537.59 281.885H557.818C558.444 281.885 559.044 281.645 559.487 281.217C559.93 280.789 560.179 280.209 560.179 279.605V260.079C560.177 259.475 559.928 258.896 559.485 258.468C559.043 258.041 558.443 257.8 557.818 257.798V257.798Z" fill="#BBDFFA"/>
<path d="M557.818 291.087H537.59C537.28 291.087 536.974 291.146 536.688 291.261C536.402 291.376 536.142 291.544 535.924 291.756C535.705 291.968 535.532 292.219 535.414 292.496C535.297 292.772 535.236 293.068 535.237 293.367V312.893C535.236 313.192 535.297 313.488 535.414 313.765C535.532 314.041 535.705 314.293 535.924 314.505C536.142 314.716 536.402 314.885 536.688 314.999C536.974 315.114 537.28 315.173 537.59 315.174H557.818C558.444 315.174 559.044 314.933 559.487 314.505C559.93 314.078 560.179 313.498 560.179 312.893V293.367C560.179 292.763 559.93 292.183 559.487 291.755C559.044 291.327 558.444 291.087 557.818 291.087V291.087Z" fill="#092E4A"/>
<path d="M600.289 157.933H580.061C579.437 157.935 578.838 158.177 578.397 158.604C577.956 159.031 577.709 159.61 577.709 160.214V179.748C577.709 180.351 577.957 180.928 578.398 181.355C578.839 181.781 579.438 182.02 580.061 182.02H600.289C600.914 182.02 601.513 181.781 601.956 181.355C602.399 180.93 602.649 180.352 602.651 179.748V160.214C602.649 159.609 602.4 159.03 601.957 158.603C601.515 158.176 600.915 157.935 600.289 157.933V157.933Z" fill="#092E4A"/>
<path d="M600.289 191.222H580.061C579.437 191.224 578.838 191.465 578.397 191.892C577.956 192.32 577.709 192.899 577.709 193.502V213.037C577.709 213.639 577.957 214.217 578.398 214.643C578.839 215.069 579.438 215.308 580.061 215.308H600.289C600.914 215.309 601.513 215.07 601.956 214.644C602.399 214.218 602.649 213.64 602.651 213.037V193.502C602.649 192.898 602.4 192.319 601.957 191.891C601.515 191.464 600.915 191.223 600.289 191.222V191.222Z" fill="#092E4A"/>
<path d="M600.289 224.51H580.061C579.437 224.512 578.838 224.753 578.397 225.181C577.956 225.608 577.709 226.187 577.709 226.791V246.316C577.708 246.615 577.768 246.912 577.886 247.188C578.004 247.465 578.177 247.716 578.396 247.928C578.614 248.14 578.874 248.308 579.16 248.423C579.445 248.537 579.752 248.597 580.061 248.597H600.289C600.915 248.597 601.516 248.356 601.959 247.929C602.402 247.501 602.651 246.921 602.651 246.316V226.791C602.649 226.186 602.4 225.607 601.957 225.18C601.515 224.753 600.915 224.512 600.289 224.51V224.51Z" fill="#BBDFFA"/>
<path d="M600.289 257.798H580.061C579.437 257.8 578.838 258.042 578.397 258.469C577.956 258.897 577.709 259.476 577.709 260.079V279.605C577.708 279.904 577.768 280.2 577.886 280.476C578.004 280.753 578.177 281.004 578.396 281.216C578.614 281.428 578.874 281.596 579.16 281.711C579.445 281.826 579.752 281.885 580.061 281.885H600.289C600.915 281.885 601.516 281.645 601.959 281.217C602.402 280.789 602.651 280.209 602.651 279.605V260.079C602.649 259.475 602.4 258.896 601.957 258.468C601.515 258.041 600.915 257.8 600.289 257.798V257.798Z" fill="#092E4A"/>
<path d="M600.289 291.087H580.061C579.752 291.087 579.445 291.146 579.16 291.261C578.874 291.376 578.614 291.544 578.396 291.756C578.177 291.968 578.004 292.219 577.886 292.496C577.768 292.772 577.708 293.068 577.709 293.367V312.893C577.708 313.192 577.768 313.488 577.886 313.765C578.004 314.041 578.177 314.293 578.396 314.505C578.614 314.716 578.874 314.885 579.16 314.999C579.445 315.114 579.752 315.173 580.061 315.174H600.289C600.915 315.173 601.516 314.933 601.959 314.505C602.402 314.078 602.651 313.498 602.651 312.893V293.367C602.651 292.763 602.402 292.183 601.959 291.755C601.516 291.327 600.915 291.087 600.289 291.087Z" fill="#092E4A"/>
<path d="M642.761 157.933H622.533C621.908 157.935 621.31 158.177 620.869 158.604C620.428 159.031 620.18 159.61 620.181 160.214V179.748C620.181 180.351 620.429 180.928 620.87 181.355C621.311 181.781 621.909 182.02 622.533 182.02H642.761C643.386 182.02 643.985 181.781 644.428 181.355C644.87 180.93 645.12 180.352 645.122 179.748V160.214C645.121 159.609 644.871 159.03 644.429 158.603C643.986 158.176 643.387 157.935 642.761 157.933V157.933Z" fill="#BBDFFA"/>
<path d="M642.761 191.222H622.533C621.908 191.224 621.31 191.465 620.869 191.892C620.428 192.32 620.18 192.899 620.181 193.502V213.037C620.181 213.639 620.429 214.217 620.87 214.643C621.311 215.069 621.909 215.308 622.533 215.308H642.761C643.386 215.309 643.985 215.07 644.428 214.644C644.87 214.218 645.12 213.64 645.122 213.037V193.502C645.121 192.898 644.871 192.319 644.429 191.891C643.986 191.464 643.387 191.223 642.761 191.222Z" fill="#BBDFFA"/>
<path d="M642.761 224.51H622.533C621.908 224.512 621.31 224.753 620.869 225.181C620.428 225.608 620.18 226.187 620.181 226.791V246.316C620.18 246.615 620.24 246.912 620.358 247.188C620.476 247.465 620.649 247.716 620.867 247.928C621.086 248.14 621.345 248.308 621.631 248.423C621.917 248.537 622.224 248.597 622.533 248.597H642.761C643.387 248.597 643.988 248.356 644.43 247.929C644.873 247.501 645.122 246.921 645.122 246.316V226.791C645.121 226.186 644.871 225.607 644.429 225.18C643.986 224.753 643.387 224.512 642.761 224.51V224.51Z" fill="#092E4A"/>
<path d="M642.761 257.798H622.533C621.908 257.8 621.31 258.042 620.869 258.469C620.428 258.897 620.18 259.476 620.181 260.079V279.605C620.18 279.904 620.24 280.2 620.358 280.476C620.476 280.753 620.649 281.004 620.867 281.216C621.086 281.428 621.345 281.596 621.631 281.711C621.917 281.826 622.224 281.885 622.533 281.885H642.761C643.387 281.885 643.988 281.645 644.43 281.217C644.873 280.789 645.122 280.209 645.122 279.605V260.079C645.121 259.475 644.871 258.896 644.429 258.468C643.986 258.041 643.387 257.8 642.761 257.798V257.798Z" fill="#092E4A"/>
<path d="M642.761 291.087H622.533C622.224 291.087 621.917 291.146 621.631 291.261C621.345 291.376 621.086 291.544 620.867 291.756C620.649 291.968 620.476 292.219 620.358 292.496C620.24 292.772 620.18 293.068 620.181 293.367V312.893C620.18 313.192 620.24 313.488 620.358 313.765C620.476 314.041 620.649 314.293 620.867 314.505C621.086 314.716 621.345 314.885 621.631 314.999C621.917 315.114 622.224 315.173 622.533 315.174H642.761C643.387 315.173 643.988 314.933 644.43 314.505C644.873 314.078 645.122 313.498 645.122 312.893V293.367C645.122 292.763 644.873 292.183 644.43 291.755C643.988 291.327 643.387 291.087 642.761 291.087Z" fill="#BBDFFA"/>
<path d="M685.233 157.933H665.005C664.381 157.935 663.782 158.177 663.341 158.604C662.9 159.031 662.653 159.61 662.653 160.214V179.748C662.653 180.351 662.901 180.928 663.342 181.355C663.783 181.781 664.381 182.02 665.005 182.02H685.233C685.858 182.02 686.457 181.781 686.9 181.355C687.343 180.93 687.592 180.352 687.595 179.748V160.214C687.593 159.609 687.343 159.03 686.901 158.603C686.458 158.176 685.859 157.935 685.233 157.933Z" fill="#BBDFFA"/>
<path d="M685.233 191.222H665.005C664.381 191.224 663.782 191.465 663.341 191.892C662.9 192.32 662.653 192.899 662.653 193.502V213.037C662.653 213.639 662.901 214.217 663.342 214.643C663.783 215.069 664.381 215.308 665.005 215.308H685.233C685.858 215.309 686.457 215.07 686.9 214.644C687.343 214.218 687.592 213.64 687.595 213.037V193.502C687.593 192.898 687.343 192.319 686.901 191.891C686.458 191.464 685.859 191.223 685.233 191.222V191.222Z" fill="#BBDFFA"/>
<path d="M685.233 224.51H665.005C664.381 224.512 663.782 224.753 663.341 225.181C662.9 225.608 662.653 226.187 662.653 226.791V246.316C662.652 246.615 662.712 246.912 662.83 247.188C662.948 247.465 663.121 247.716 663.339 247.928C663.558 248.14 663.818 248.308 664.103 248.423C664.389 248.537 664.696 248.597 665.005 248.597H685.233C685.859 248.597 686.46 248.356 686.903 247.929C687.345 247.501 687.594 246.921 687.595 246.316V226.791C687.593 226.186 687.343 225.607 686.901 225.18C686.458 224.753 685.859 224.512 685.233 224.51Z" fill="#092E4A"/>
<path d="M685.233 257.798H665.005C664.381 257.8 663.782 258.042 663.341 258.469C662.9 258.897 662.653 259.476 662.653 260.079V279.605C662.652 279.904 662.712 280.2 662.83 280.476C662.948 280.753 663.121 281.004 663.339 281.216C663.558 281.428 663.818 281.596 664.103 281.711C664.389 281.826 664.696 281.885 665.005 281.885H685.233C685.859 281.885 686.46 281.645 686.903 281.217C687.345 280.789 687.594 280.209 687.595 279.605V260.079C687.593 259.475 687.343 258.896 686.901 258.468C686.458 258.041 685.859 257.8 685.233 257.798V257.798Z" fill="#BBDFFA"/>
<path d="M685.233 291.087H665.005C664.696 291.087 664.389 291.146 664.103 291.261C663.818 291.376 663.558 291.544 663.339 291.756C663.121 291.968 662.948 292.219 662.83 292.496C662.712 292.772 662.652 293.068 662.653 293.367V312.893C662.652 313.192 662.712 313.488 662.83 313.765C662.948 314.041 663.121 314.293 663.339 314.505C663.558 314.716 663.817 314.885 664.103 314.999C664.389 315.114 664.696 315.173 665.005 315.174H685.233C685.859 315.173 686.46 314.933 686.903 314.505C687.345 314.078 687.594 313.498 687.595 312.893V293.367C687.594 292.763 687.345 292.183 686.903 291.755C686.46 291.327 685.859 291.087 685.233 291.087V291.087Z" fill="#BBDFFA"/>
<path d="M727.705 157.933H707.477C706.852 157.935 706.254 158.177 705.813 158.604C705.372 159.031 705.124 159.61 705.125 160.214V179.748C705.125 180.351 705.373 180.928 705.814 181.355C706.255 181.781 706.853 182.02 707.477 182.02H727.705C728.33 182.02 728.929 181.781 729.372 181.355C729.814 180.93 730.064 180.352 730.066 179.748V160.214C730.064 159.609 729.815 159.03 729.373 158.603C728.93 158.176 728.33 157.935 727.705 157.933V157.933Z" fill="#092E4A"/>
<path d="M727.705 191.222H707.477C706.852 191.224 706.254 191.465 705.813 191.892C705.372 192.32 705.124 192.899 705.125 193.502V213.037C705.125 213.639 705.373 214.217 705.814 214.643C706.255 215.069 706.853 215.308 707.477 215.308H727.705C728.329 215.309 728.929 215.07 729.372 214.644C729.814 214.218 730.064 213.64 730.066 213.037V193.502C730.064 192.898 729.815 192.319 729.373 191.891C728.93 191.464 728.33 191.223 727.705 191.222V191.222Z" fill="#BBDFFA"/>
<path d="M727.705 224.51H707.477C706.852 224.512 706.254 224.753 705.813 225.181C705.372 225.608 705.124 226.187 705.125 226.791V246.316C705.124 246.615 705.184 246.912 705.302 247.188C705.419 247.465 705.593 247.716 705.811 247.928C706.03 248.14 706.289 248.308 706.575 248.423C706.861 248.537 707.167 248.597 707.477 248.597H727.705C728.331 248.597 728.931 248.356 729.374 247.929C729.817 247.501 730.066 246.921 730.066 246.316V226.791C730.064 226.186 729.815 225.607 729.373 225.18C728.93 224.753 728.33 224.512 727.705 224.51V224.51Z" fill="#BBDFFA"/>
<path d="M727.705 257.798H707.477C706.852 257.8 706.254 258.042 705.813 258.469C705.372 258.897 705.124 259.476 705.125 260.079V279.605C705.124 279.904 705.184 280.2 705.302 280.476C705.419 280.753 705.593 281.004 705.811 281.216C706.03 281.428 706.289 281.596 706.575 281.711C706.861 281.826 707.167 281.885 707.477 281.885H727.705C728.331 281.885 728.931 281.645 729.374 281.217C729.817 280.789 730.066 280.209 730.066 279.605V260.079C730.064 259.475 729.815 258.896 729.373 258.468C728.93 258.041 728.33 257.8 727.705 257.798V257.798Z" fill="#BBDFFA"/>
<path d="M727.705 291.087H707.477C707.167 291.087 706.861 291.146 706.575 291.261C706.289 291.376 706.03 291.544 705.811 291.756C705.593 291.968 705.419 292.219 705.302 292.496C705.184 292.772 705.124 293.068 705.125 293.367V312.893C705.124 313.192 705.184 313.488 705.302 313.765C705.419 314.041 705.593 314.293 705.811 314.505C706.03 314.716 706.289 314.885 706.575 314.999C706.861 315.114 707.167 315.173 707.477 315.174H727.705C728.331 315.173 728.931 314.933 729.374 314.505C729.817 314.078 730.066 313.498 730.066 312.893V293.367C730.066 292.763 729.817 292.183 729.374 291.755C728.931 291.327 728.331 291.087 727.705 291.087V291.087Z" fill="#092E4A"/>
<path d="M770.176 157.933H749.949C749.324 157.935 748.725 158.177 748.285 158.604C747.844 159.031 747.596 159.61 747.596 160.214V179.748C747.596 180.351 747.844 180.928 748.285 181.355C748.727 181.781 749.325 182.02 749.949 182.02H770.176C770.801 182.02 771.401 181.781 771.843 181.355C772.286 180.93 772.536 180.352 772.538 179.748V160.214C772.536 159.609 772.287 159.03 771.844 158.603C771.402 158.176 770.802 157.935 770.176 157.933V157.933Z" fill="#092E4A"/>
<path d="M770.176 191.222H749.949C749.324 191.224 748.725 191.465 748.284 191.892C747.843 192.32 747.596 192.899 747.596 193.502V213.037C747.596 213.639 747.844 214.217 748.285 214.643C748.727 215.069 749.325 215.308 749.949 215.308H770.176C770.801 215.309 771.401 215.07 771.843 214.644C772.286 214.218 772.536 213.64 772.538 213.037V193.502C772.536 192.898 772.287 192.319 771.844 191.891C771.402 191.464 770.802 191.223 770.176 191.222V191.222Z" fill="#092E4A"/>
<path d="M770.176 224.51H749.949C749.324 224.512 748.725 224.753 748.284 225.181C747.843 225.608 747.596 226.187 747.596 226.791V246.316C747.595 246.615 747.656 246.912 747.773 247.188C747.891 247.465 748.064 247.716 748.283 247.928C748.501 248.14 748.761 248.308 749.047 248.423C749.333 248.537 749.639 248.597 749.949 248.597H770.176C770.803 248.597 771.403 248.356 771.846 247.929C772.289 247.501 772.538 246.921 772.538 246.316V226.791C772.536 226.186 772.287 225.607 771.844 225.18C771.402 224.753 770.802 224.512 770.176 224.51V224.51Z" fill="#BBDFFA"/>
<path d="M770.176 257.798H749.949C749.324 257.8 748.725 258.042 748.285 258.469C747.844 258.897 747.596 259.476 747.596 260.079V279.605C747.595 279.904 747.656 280.2 747.773 280.476C747.891 280.753 748.064 281.004 748.283 281.216C748.501 281.428 748.761 281.596 749.047 281.711C749.333 281.826 749.639 281.885 749.949 281.885H770.176C770.803 281.885 771.403 281.645 771.846 281.217C772.289 280.789 772.538 280.209 772.538 279.605V260.079C772.536 259.475 772.287 258.896 771.844 258.468C771.402 258.041 770.802 257.8 770.176 257.798V257.798Z" fill="#092E4A"/>
<path d="M770.176 291.087H749.949C749.639 291.087 749.333 291.146 749.047 291.261C748.761 291.376 748.501 291.544 748.283 291.756C748.064 291.968 747.891 292.219 747.773 292.496C747.656 292.772 747.595 293.068 747.596 293.367V312.893C747.595 313.192 747.656 313.488 747.773 313.765C747.891 314.041 748.064 314.293 748.283 314.505C748.501 314.716 748.761 314.885 749.047 314.999C749.333 315.114 749.639 315.173 749.949 315.174H770.176C770.803 315.173 771.403 314.933 771.846 314.505C772.289 314.078 772.538 313.498 772.538 312.893V293.367C772.538 292.763 772.289 292.183 771.846 291.755C771.403 291.327 770.803 291.087 770.176 291.087V291.087Z" fill="#092E4A"/>
<path d="M305.273 578.974H304.71L305.191 578.912L305.273 578.974Z" fill="#2F2E41"/>
<path d="M256.879 214.953C291.151 214.953 318.935 188.122 318.935 155.024C318.935 121.926 291.151 95.0942 256.879 95.0942C222.606 95.0942 194.822 121.926 194.822 155.024C194.822 188.122 222.606 214.953 256.879 214.953Z" fill="#FFB6B6"/>
<path d="M311.223 111.084C311.223 111.084 327.454 81.1197 291.746 78.3956C291.746 78.3956 261.305 51.7278 230.277 73.5203C230.277 73.5203 213.352 73.5203 204.097 92.0159C204.097 92.0159 190.786 87.1407 187.861 100.188C187.861 100.188 178.121 127.429 187.861 151.946C197.601 176.462 200.836 179.186 200.836 179.186C200.836 179.186 184.831 127.786 223.789 125.062C262.746 122.338 306.341 98.8262 309.587 128.791C312.834 158.756 317.72 166.139 317.72 166.139C317.72 166.139 348.556 123.343 311.223 111.084Z" fill="#2F2E41"/>
<path d="M417.405 302.718L417.205 303.735L414.961 315.174L399.457 394.294L398.539 398.952L396.614 408.802L393.98 422.24L388.139 452.02L386.468 460.555L385.841 463.757L385.623 464.879L383.888 473.712L383.362 476.379L379.129 506.667L375.432 533.061L387.803 545.008L380.428 552.131L375.587 578.911L375.596 578.972H178.015C170.022 573.972 162.144 568.817 154.381 563.508L156.007 551.754C156.007 551.754 161.602 530.763 159.249 528.255C156.906 525.746 151.765 521.263 151.765 521.263L158.241 506.667L159.14 504.641L157.633 474.44L157.596 473.712L157.097 463.757L157.033 462.476L156.933 460.555L155.017 422.24L154.98 421.609L154.399 409.995L153.854 398.952L153.618 394.294L151.284 347.69L149.703 316.042L148.323 288.49L153.872 286.675L213.229 267.193L237.817 236.325L288.99 236.694L314.041 236.878L355.84 274.315L365.35 278.701L365.423 278.736L372.244 281.885L389.538 289.859L407.822 298.297L417.205 302.621L417.405 302.718Z" fill="#577B97"/>
<path d="M244.43 489.064C240.68 490.467 236.657 491.059 232.645 490.798C228.632 490.537 224.728 489.43 221.206 487.554C217.685 485.678 214.632 483.079 212.263 479.941C209.894 476.803 208.267 473.201 207.495 469.389L110.708 456.128L144.354 419.373L231.106 437.601C237.823 436.774 244.62 438.354 250.21 442.043C255.801 445.733 259.795 451.274 261.438 457.617C263.08 463.961 262.256 470.666 259.121 476.462C255.986 482.257 250.759 486.742 244.43 489.064V489.064Z" fill="#FFB6B6"/>
<path d="M201.276 422.24C199.483 420.045 196.945 418.532 194.11 417.969L154.399 409.995L150.321 409.179C147.951 408.702 145.712 407.746 143.751 406.375C141.789 405.004 140.15 403.249 138.94 401.223C137.684 399.098 136.925 396.733 136.714 394.294C136.525 392.077 136.8 389.845 137.523 387.733L151.284 347.69L160.212 321.709C161.294 318.575 161.933 315.315 162.11 312.016C162.608 302.887 159.683 293.891 153.872 286.675C148.763 280.332 141.677 275.745 133.661 273.59C125.645 271.435 117.124 271.828 109.357 274.71C109.13 274.789 108.893 274.877 108.666 274.964C103.096 277.112 98.1193 280.482 94.1295 284.807C90.1397 289.132 87.2461 294.294 85.6775 299.885L75.9769 333.962L55.9672 404.215C53.9641 411.253 53.5595 418.627 54.7809 425.83C56.0023 433.034 58.821 439.898 63.044 445.952C67.267 452.006 72.7946 457.108 79.2485 460.907C85.7024 464.707 92.9302 467.115 100.437 467.967L157.632 474.44L184.1 477.44C187.161 477.796 190.247 477.024 192.745 475.28C195.243 473.536 196.969 470.946 197.579 468.028C197.622 467.869 197.655 467.708 197.679 467.546L198.315 463.756L203.701 431.845L203.756 431.521C204.036 429.892 203.961 428.225 203.533 426.627C203.106 425.029 202.337 423.534 201.276 422.24Z" fill="#577B97"/>
<path d="M306.079 490.087C309.996 490.965 314.066 491.003 318 490.199C321.934 489.394 325.638 487.766 328.85 485.429C332.062 483.093 334.705 480.104 336.592 476.675C338.479 473.245 339.564 469.457 339.772 465.579L433.655 439.269L394.978 407.464L311.755 437.324C304.985 437.419 298.486 439.91 293.49 444.323C288.494 448.737 285.349 454.767 284.649 461.271C283.949 467.775 285.745 474.3 289.694 479.611C293.644 484.922 299.474 488.65 306.079 490.087V490.087Z" fill="#FFB6B6"/>
<path d="M480.268 380.417L435.616 281.175C431.964 273.027 425.441 266.392 417.205 262.447C414.659 261.237 411.985 260.296 409.23 259.64C408.803 259.535 408.376 259.439 407.949 259.36C402.107 258.128 396.047 258.237 390.256 259.676C384.962 260.989 380.014 263.365 375.735 266.65C371.457 269.934 367.943 274.052 365.423 278.736C365.395 278.775 365.371 278.816 365.35 278.859C362.536 284.117 361.039 289.94 360.981 295.859C360.922 301.778 362.304 307.628 365.014 312.937L365.568 314.007L397.122 375.207C398.2 377.3 398.807 379.589 398.904 381.924C399.001 384.259 398.585 386.588 397.685 388.757C396.784 390.927 395.419 392.888 393.678 394.511C391.938 396.135 389.861 397.385 387.585 398.18L385.369 398.952L345.513 412.855C342.522 413.885 340.063 415.996 338.651 418.743C337.24 421.49 336.988 424.659 337.947 427.582L338.047 427.889L349.219 462.415C349.273 462.572 349.328 462.73 349.392 462.888C349.49 463.186 349.611 463.476 349.755 463.757C350.942 466.328 353.041 468.406 355.673 469.617C358.306 470.828 361.299 471.092 364.115 470.362L385.623 464.879L390.01 463.757L445.552 449.59C452.861 447.725 459.665 444.357 465.501 439.717C471.336 435.076 476.063 429.272 479.36 422.703C482.657 416.134 484.445 408.954 484.601 401.656C484.758 394.358 483.28 387.113 480.268 380.417L480.268 380.417Z" fill="#577B97"/>
<path d="M40.7803 463.757C53.6512 478.917 67.5321 493.251 82.3347 506.668H492.856C496.811 506.674 500.602 508.194 503.398 510.896C506.194 513.597 507.766 517.26 507.77 521.079L508.361 621.541C533.615 610.336 557.266 596.028 578.726 578.972C584.685 574.244 590.458 569.312 596.047 564.174C599.708 560.824 603.28 557.391 606.765 553.877C632.891 527.592 654.047 497.091 669.274 463.757H40.7803Z" fill="#3F3D56"/>
<path d="M606.765 553.876C603.287 557.394 599.714 560.827 596.048 564.174H508.661V553.876H606.765Z" fill="#577B97"/>
<path d="M416.587 224.51C416.155 223.741 415.516 223.098 414.738 222.65C413.959 222.202 413.069 221.966 412.163 221.966H114.388C113.053 221.97 111.774 222.484 110.831 223.396C109.888 224.309 109.358 225.545 109.356 226.835V398.952H417.204V226.835C417.209 226.021 416.996 225.221 416.587 224.51V224.51Z" fill="#3F3D56"/>
<path d="M109.087 394.292V415.531C109.087 416.412 109.266 417.284 109.615 418.097C109.964 418.911 110.476 419.65 111.12 420.273C111.765 420.895 112.53 421.389 113.373 421.726C114.215 422.063 115.118 422.236 116.03 422.236H229.654V464.153H228.145C228.026 464.153 227.909 464.176 227.8 464.219C227.69 464.263 227.591 464.327 227.507 464.408C227.423 464.489 227.357 464.585 227.312 464.691C227.266 464.796 227.243 464.91 227.243 465.024V467.94C227.243 468.054 227.266 468.167 227.312 468.273C227.357 468.379 227.423 468.475 227.507 468.556C227.591 468.636 227.69 468.701 227.8 468.744C227.909 468.788 228.026 468.811 228.145 468.811H298.681C298.8 468.811 298.917 468.788 299.027 468.744C299.136 468.701 299.235 468.636 299.319 468.556C299.403 468.475 299.469 468.379 299.515 468.273C299.56 468.167 299.583 468.054 299.583 467.94V465.024C299.583 464.91 299.56 464.796 299.515 464.691C299.469 464.585 299.403 464.489 299.319 464.408C299.235 464.327 299.136 464.263 299.027 464.219C298.917 464.176 298.8 464.153 298.681 464.153H297.172V422.236H410.797C411.708 422.236 412.611 422.063 413.453 421.726C414.296 421.389 415.061 420.895 415.706 420.273C416.351 419.65 416.862 418.911 417.211 418.097C417.56 417.284 417.739 416.412 417.739 415.531V394.292H109.087Z" fill="#3F3D56"/>
<path d="M259.684 333.332C275.388 333.332 288.119 321.037 288.119 305.871C288.119 290.705 275.388 278.41 259.684 278.41C243.979 278.41 231.249 290.705 231.249 305.871C231.249 321.037 243.979 333.332 259.684 333.332Z" fill="#BBDFFA"/>
<path d="M332.134 151.749H327.592C327.592 118.592 293.613 96.8649 259.334 96.8473C254.348 96.8333 249.373 97.3005 244.483 98.242C238.979 99.3034 233.266 100.575 227.653 102.233C205.518 108.786 184.99 121.452 184.99 151.749C184.985 157.633 185.761 163.493 187.297 169.187L182.901 170.292C181.271 164.237 180.446 158.006 180.449 151.749C180.449 125.276 191.702 107.093 211.14 96.2509C221.358 90.5493 233.829 86.874 248.117 85.0846C254.062 84.3207 260.073 84.1444 266.055 84.5583C305.475 87.295 332.134 116.487 332.134 151.749Z" fill="#BBDFFA"/>
<path d="M339.7 154.179L337.91 141.407C337.469 138.182 335.86 135.212 333.369 133.022C331.77 131.594 329.855 130.536 327.77 129.929C325.685 129.321 323.484 129.179 321.334 129.513L318.491 129.89C317.713 129.989 316.963 130.236 316.285 130.617C315.607 130.998 315.014 131.505 314.54 132.109C314.062 132.712 313.713 133.399 313.512 134.132C313.311 134.865 313.262 135.63 313.368 136.381L317.501 165.801C317.671 167 318.228 168.118 319.092 168.994C319.956 169.871 321.083 170.463 322.315 170.687C322.68 170.758 323.051 170.793 323.423 170.792C323.691 170.792 323.958 170.775 324.222 170.74L327.401 170.328C329.34 170.079 331.205 169.451 332.882 168.481C334.56 167.511 336.014 166.22 337.157 164.687C337.402 164.354 337.638 164.012 337.856 163.661C339.558 160.791 340.208 157.45 339.7 154.179Z" fill="#BBDFFA"/>
<path d="M316.656 130.425C315.823 130.817 315.097 131.394 314.54 132.109C314.062 132.712 313.713 133.399 313.512 134.132C313.311 134.865 313.262 135.63 313.368 136.381L317.501 165.801C317.671 167 318.228 168.117 319.092 168.994C319.956 169.871 321.083 170.463 322.315 170.687L316.656 130.425Z" fill="#577B97"/>
<path d="M339.7 154.179L337.911 141.407C337.469 138.182 335.861 135.211 333.369 133.022L337.484 162.293C337.545 162.762 337.671 163.223 337.856 163.661C339.559 160.791 340.208 157.45 339.7 154.179V154.179Z" fill="#3F3D56"/>
<path d="M325.558 163.381C326.801 163.218 327.426 160.362 326.954 157.002C326.482 153.641 325.091 151.049 323.849 151.212C322.606 151.375 321.981 154.231 322.453 157.591C322.925 160.952 324.315 163.544 325.558 163.381Z" fill="#3F3D56"/>
<path d="M322.833 147.592C324.076 147.429 324.701 144.573 324.228 141.213C323.756 137.852 322.366 135.26 321.124 135.423C319.881 135.586 319.256 138.442 319.728 141.802C320.2 145.163 321.59 147.755 322.833 147.592Z" fill="#3F3D56"/>
<path d="M340.091 153.732C341.334 153.569 341.958 150.713 341.486 147.353C341.014 143.993 339.624 141.4 338.381 141.563C337.139 141.726 336.514 144.582 336.986 147.942C337.458 151.303 338.848 153.895 340.091 153.732Z" fill="#3F3D56"/>
<path d="M259.334 96.8473C254.348 96.8333 249.373 97.3005 244.484 98.242C238.979 99.3034 233.266 100.575 227.653 102.233C218.888 101.821 212.439 99.6279 211.14 96.2509C221.358 90.5493 233.829 86.874 248.117 85.0846C254.062 84.3207 260.073 84.1444 266.056 84.5583C266.689 84.9168 267.236 85.4007 267.662 85.9783C268.088 86.5558 268.382 87.2138 268.526 87.909C268.953 90.9616 265.347 94.2071 259.334 96.8473Z" fill="#3F3D56"/>
<path d="M201.349 182.187L194.355 154.109C194.105 153.096 193.552 152.176 192.763 151.466C191.974 150.756 190.986 150.287 189.922 150.118C189.622 150.072 189.318 150.049 189.014 150.047C188.586 150.049 188.159 150.099 187.742 150.196L185.036 150.828C181.551 151.642 178.542 153.758 176.671 156.711C174.8 159.665 174.218 163.215 175.054 166.582L178.187 179.178C178.903 182.143 180.607 184.8 183.037 186.739C183.431 187.046 183.844 187.33 184.273 187.59C185.795 188.512 187.493 189.129 189.267 189.406C191.041 189.684 192.854 189.615 194.6 189.204L197.298 188.572C198.011 188.412 198.682 188.11 199.269 187.687C200.141 187.072 200.804 186.221 201.175 185.242C201.545 184.263 201.606 183.199 201.349 182.187Z" fill="#BBDFFA"/>
<path d="M186.687 176.963C187.906 176.679 188.228 173.777 187.407 170.48C186.585 167.183 184.931 164.74 183.712 165.023C182.492 165.306 182.17 168.209 182.991 171.506C183.813 174.803 185.467 177.246 186.687 176.963Z" fill="#3F3D56"/>
<path d="M177.604 179.594C178.823 179.311 179.145 176.408 178.324 173.111C177.502 169.814 175.848 167.371 174.629 167.655C173.409 167.938 173.087 170.84 173.908 174.137C174.73 177.434 176.384 179.877 177.604 179.594Z" fill="#3F3D56"/>
<path d="M201.794 182.081L194.8 154.003C194.527 152.907 193.926 151.913 193.072 151.146C192.217 150.378 191.147 149.871 189.995 149.688L199.541 188.037C200.484 187.371 201.201 186.449 201.602 185.389C202.003 184.329 202.07 183.178 201.794 182.081V182.081Z" fill="#577B97"/>
<path d="M176.634 161.021C176.441 160.24 176.079 159.507 175.571 158.872C174.588 161.331 174.407 164.021 175.053 166.582L178.187 179.178C178.903 182.144 180.607 184.8 183.037 186.739L176.634 161.021Z" fill="#3F3D56"/>
</svg>
