<svg width="81" height="80" viewBox="0 0 81 80" fill="none" xmlns="http://www.w3.org/2000/svg">
<path d="M58.9148 0.000252284C57.6449 -0.0123208 56.4001 0.445338 55.4572 1.31036C55.4044 1.36317 55.339 1.41598 55.2862 1.46878L28.581 31.0029L12.9829 18.2211L11.62 17.0418C11.1485 16.6523 10.5797 16.399 9.9748 16.309C9.36993 16.2191 8.75198 16.2959 8.18756 16.5313C8.17499 16.5313 8.16242 16.5439 8.14733 16.5439L2.05695 19.0585C1.979 19.0987 1.88596 19.1364 1.808 19.1767C1.75281 19.2101 1.69571 19.2403 1.63701 19.2672L1.51882 19.3451C1.46602 19.3854 1.40064 19.4231 1.34783 19.4633C1.32268 19.4885 1.28245 19.5161 1.2573 19.5413C1.2045 19.5815 1.15169 19.6192 1.11397 19.6595C1.06116 19.6997 1.02345 19.7374 0.983212 19.7776C0.958066 19.8028 0.917832 19.843 0.877598 19.8958C0.838959 19.932 0.803615 19.9716 0.771985 20.014L0.653798 20.1724C0.624256 20.2049 0.598133 20.2403 0.575845 20.2781C0.535612 20.3309 0.497892 20.3962 0.457659 20.449C0.445086 20.4893 0.417425 20.527 0.392279 20.5672C0.367133 20.62 0.339472 20.6728 0.314326 20.7382L0.248946 20.8816C0.236373 20.9344 0.208712 20.9872 0.196139 21.04C0.172916 21.0907 0.155212 21.1439 0.143333 21.1984C0.11832 21.2572 0.100586 21.3189 0.0905259 21.382L0.0502922 21.5127C0.0502922 21.5655 0.0377191 21.6309 0.0251461 21.6963C0.0251461 21.7491 0.012573 21.8019 0.012573 21.8673C2.34191e-09 21.9578 0 22.0509 0 22.1414V57.8689C0 59.2168 0.812218 60.4363 2.05695 60.9468L8.14733 63.5142C9.31411 63.9995 10.6619 63.7757 11.6175 62.9635L12.9804 61.7842L28.5785 49.0024L55.2837 78.5365C55.3616 78.6144 55.4547 78.6949 55.5326 78.7603C55.598 78.8131 55.6634 78.8785 55.7287 78.9313C55.7815 78.9841 55.8469 79.0218 55.9123 79.0746C55.9903 79.1274 56.0556 79.1651 56.121 79.218C56.199 79.2582 56.2794 79.3085 56.3448 79.3487L56.5686 79.4669L56.7924 79.5725C56.8704 79.6128 56.9508 79.6379 57.0288 79.663C57.1067 79.7033 57.1998 79.7284 57.2777 79.7536C57.3431 79.7787 57.4211 79.7938 57.5015 79.8189C57.582 79.8441 57.6725 79.8718 57.7631 79.8843C57.841 79.8969 57.9215 79.9246 57.9994 79.9371C58.0774 79.9497 58.1579 79.9623 58.2484 79.9623C58.3263 79.9749 58.4194 79.9874 58.4973 79.9874C58.5753 79.9874 58.6557 80 58.7463 80H58.9952C59.0857 80 59.1788 79.9874 59.2567 79.9874C59.3306 79.9735 59.4054 79.9651 59.4805 79.9623C59.6479 79.939 59.814 79.908 59.9784 79.8692C60.069 79.8441 60.162 79.829 60.2525 79.7913C60.3179 79.7787 60.3959 79.7511 60.4763 79.7259C60.5568 79.7008 60.6347 79.6731 60.7127 79.6354L61.0145 79.5172L77.5832 71.5409C78.1867 71.2517 78.7349 70.8468 79.1674 70.3364C79.2856 70.2182 79.3761 70.0874 79.4817 69.9567C79.4817 69.9567 79.4817 69.9441 79.4943 69.9315C79.6723 69.6736 79.8295 69.402 79.9645 69.1193C79.9771 69.0941 79.9771 69.0791 79.9897 69.0539C80.0425 68.9357 80.0953 68.8175 80.133 68.6993L80.1733 68.5686C80.2135 68.4504 80.2512 68.3322 80.2789 68.214C80.2914 68.1738 80.304 68.1361 80.304 68.0958C80.3292 67.9777 80.3442 67.8595 80.3694 67.7564C80.3716 67.6986 80.38 67.6413 80.3945 67.5854C80.3945 67.4798 80.4071 67.3892 80.4071 67.2836C80.4197 67.1931 80.4197 67.1001 80.4197 67.0221V12.9983V12.8801C80.4197 12.7217 80.4071 12.5532 80.3945 12.3822C80.2932 11.5451 79.9819 10.7472 79.4895 10.0627C78.9971 9.37815 78.3396 8.82923 77.5782 8.46694L61.0094 0.503174C60.3594 0.189033 59.6491 0.0191861 58.9273 0.00528151L58.9148 0.000252284ZM60.3154 22.9712V57.024L39.5447 39.9976L60.3154 22.9712ZM10.0484 28.5109L20.4337 39.9976L10.0484 51.4843V28.5109Z" fill="#577B97"/>
</svg>
