<svg width="81" height="80" viewBox="0 0 81 80" fill="none" xmlns="http://www.w3.org/2000/svg">
<path d="M77.6255 8.45073L61.0462 0.402487C60.432 0.152438 59.7775 0.0160854 59.1146 7.59784e-05H58.7927C57.7469 -0.00583811 56.7284 0.333659 55.8953 0.965865L55.3319 1.44876L23.6219 30.3822L9.81914 20.1207C9.19735 19.645 8.42824 19.4029 7.64611 19.4366C6.8799 19.4278 6.13152 19.6679 5.51333 20.1207L1.0868 24.1448C0.739734 24.4517 0.462992 24.8299 0.275479 25.2535C0.0879658 25.6771 -0.00590179 26.1363 0.000287315 26.5995C-0.00137805 27.068 0.0943464 27.5316 0.281386 27.9611C0.468426 28.3906 0.742698 28.7766 1.0868 29.0945L13.1592 39.9998L1.0868 50.9454C0.746773 51.2618 0.475583 51.6448 0.290147 52.0706C0.104711 52.4964 0.00900753 52.9558 0.00900753 53.4203C0.00900753 53.8847 0.104711 54.3441 0.290147 54.7699C0.475583 55.1957 0.746773 55.5787 1.0868 55.8951L5.51333 59.9192C6.1808 60.503 7.04113 60.8185 7.9278 60.8045C8.60886 60.7533 9.26293 60.5168 9.81914 60.1204L23.6219 49.6175L55.3319 78.5509C56.1432 79.3869 57.2294 79.9014 58.3903 79.9996H59.0744C59.7621 80.0098 60.441 79.8435 61.0462 79.5167L77.6255 71.4684C78.4645 71.0669 79.1756 70.4406 79.68 69.6591C80.1844 68.8777 80.4622 67.9717 80.4827 67.0419V12.998C80.4799 12.0485 80.2107 11.119 79.7056 10.315C79.2004 9.51111 78.4798 8.86516 77.6255 8.45073V8.45073ZM60.3621 58.2291L36.2174 39.9998L60.3621 21.7706V58.2291Z" fill="#577B97"/>
</svg>
